<?xml version="1.0" encoding="utf-8"?>
<!DOCTYPE svg PUBLIC "-//W3C//DTD SVG 1.0//EN" "http://www.w3.org/TR/2001/REC-SVG-20010904/DTD/svg10.dtd">
<svg version="1.0" xmlns="http://www.w3.org/2000/svg" width="1011px" height="1011px" viewBox="0 0 1011 1011" preserveAspectRatio="xMidYMid meet">
 <g fill="#a1c54b">
  <path d="M161.5 1008.3 c-30.3 -6.9 -37.5 -9.1 -37.5 -11.4 0 -2.6 3.4 -2.5 17.8 0.6 6.4 1.4 14.9 3.2 18.7 4 5.9 1.3 17.3 1.5 72 1.3 99.7 -0.4 458.5 -0.3 545.8 0.1 73.1 0.4 77.7 0.5 77.7 2.1 0 1 -1 2.1 -2.2 2.6 -2.3 0.9 -688.6 1.6 -692.3 0.7z"/>
  <path d="M859 1004.1 c0 -2.3 0.7 -3.1 3.8 -4.5 4.1 -1.8 13.6 -3.6 19.5 -3.6 3.1 0 3.8 0.3 3.5 1.8 -0.3 1.8 -8 4.7 -20.1 7.5 l-6.7 1.5 0 -2.7z"/>
  <path d="M998.3 879.3 c-1.8 -0.7 -1.6 -6 0.7 -16.6 2.9 -13.1 2.7 -12.7 6.2 -12.7 l3 0 -0.6 4.8 c-1.1 8.1 -5.9 25.2 -7 25.1 -0.6 0 -1.7 -0.3 -2.3 -0.6z"/>
  <path d="M166.5 815.3 c-4.1 -1 -8.5 -6.9 -8.5 -11.5 0 -3.5 1.9 -9.6 3.5 -11.1 4.7 -4.8 9.4 -11 8.9 -11.8 -1.3 -2.2 -6.6 -3.2 -20.9 -3.9 -8.3 -0.4 -16 -1.2 -17.2 -1.8 -2.7 -1.5 -4.3 -6.2 -4.3 -12.6 0.1 -6.1 1.8 -11.3 5.6 -16.8 5 -7.1 4.9 -7.1 50.4 -7.1 22.3 0 39.7 -0.2 38.8 -0.4 -1.1 -0.3 -1.8 -1.4 -1.8 -2.9 0 -1.3 -0.4 -2.4 -1 -2.4 -2 0 -1 -8.1 1.6 -13.1 1.4 -2.8 2.4 -5.2 2.2 -5.4 -0.2 -0.2 -8.5 -1 -18.5 -1.7 -23.4 -1.9 -23.6 -2 -23.1 -12.6 0.2 -5.5 1 -9.1 2.7 -12.5 4.4 -9 -10.1 -8.2 144.2 -8.2 156.6 0.1 139.6 -1.2 145.4 10.9 4.1 8.5 4.6 14.3 1.5 18.6 -1.6 2.3 -2.9 2.8 -7.9 3.4 -3.2 0.4 -6.4 1.3 -7 2 -0.6 0.7 -2.4 5.7 -4 11 -3.2 10.6 -4.2 12.3 -7.4 12.9 -1.2 0.2 0.6 0.5 4.1 0.6 l6.3 0.1 5.2 -5.4 c6.6 -6.7 11.6 -9.3 21.2 -10.9 l7.5 -1.3 -3.4 -5.6 c-1.8 -3.1 -4.6 -8.7 -6 -12.5 -2.5 -6.6 -6.5 -14.8 -12.1 -24.8 -13 -23.3 -14.9 -31.5 -10.5 -45.7 2.8 -9 2.7 -9.4 -2.4 -10.7 -2.5 -0.6 -5.7 -1.1 -7.2 -1.1 -3.7 0 -12.5 -2.6 -20.9 -6.3 -38.6 -16.7 -50 -21.8 -51.9 -23.5 -8.1 -7.1 -16.8 -10.1 -19.6 -6.6 -0.8 0.8 -2.7 2.2 -4.4 3 -9 4.3 -19.1 11.9 -28.8 22 -14.1 14.4 -26.9 20.9 -50.9 25.8 -9.7 2 -15.6 2.6 -25.2 2.6 -16 0 -24.6 -1.7 -40.4 -7.9 -14.9 -5.9 -23.7 -12.5 -24.9 -18.6 -1.3 -6.9 0.2 -9.3 12.8 -21.7 6.5 -6.5 12.3 -11.8 12.9 -11.8 0.5 0 2.8 -1.9 5.2 -4.3 2.3 -2.4 8 -7.2 12.7 -10.7 9.2 -6.8 13.4 -10.4 22 -18.4 3 -2.8 7.6 -6.8 10.1 -8.8 2.6 -2.1 5.7 -4.6 7 -5.8 1.3 -1.1 7.5 -6.1 13.8 -11.1 6.3 -5 16.8 -13.9 23.3 -19.8 15.5 -13.8 19.5 -17.1 31.7 -26 5.5 -4 10.1 -7.8 10.1 -8.2 0 -0.8 22.6 -19.4 33.4 -27.5 2.2 -1.7 6.1 -5.2 8.5 -7.8 2.3 -2.6 8.9 -8.4 14.5 -12.9 5.5 -4.5 15.3 -12.7 21.6 -18.2 6.3 -5.6 17.4 -14.7 24.5 -20.3 18.7 -14.8 29 -23.6 37 -31.7 3.9 -3.9 10 -9.2 13.7 -11.8 3.6 -2.6 7.1 -5.4 7.8 -6.2 0.7 -0.8 4.2 -3.5 7.9 -5.9 3.6 -2.5 8.1 -5.8 9.8 -7.5 1.8 -1.6 5.9 -5 9 -7.4 13.5 -10.5 18.3 -17.7 18.3 -27.6 0.1 -5.5 0.7 -8.2 5.9 -23.3 8.1 -23.5 13.3 -31.3 29.6 -43.6 3.3 -2.5 8 -6.5 10.5 -8.8 3.4 -3.3 5.8 -4.6 9.5 -5.4 2.8 -0.6 8.4 -1.7 12.5 -2.6 4.4 -0.9 15.7 -1.8 27.4 -2.1 17.8 -0.5 21 -0.3 31 1.6 17.9 3.6 18.6 3.8 20.1 7.4 0.7 1.8 2.2 3.9 3.2 4.8 6.2 5.5 21 20.9 22.4 23.4 3.3 5.9 7.6 15 8.2 17.5 0.9 3.6 6.5 10 8.8 10 1.1 0 3.9 1 6.2 2.2 3.2 1.6 6.6 2.2 13.9 2.6 8.3 0.4 9.8 0.7 10.3 2.3 0.3 1 2.6 2.9 5 4.4 2.5 1.4 4.5 3.1 4.5 3.6 0 0.6 1.4 3.2 3.2 5.8 2.4 3.5 3.3 6 3.6 10.3 0.4 5.1 0.2 5.9 -2.1 8 -1.3 1.3 -5.1 3.2 -8.3 4.2 -3.3 1.1 -7.7 2.8 -9.9 3.8 -2.2 0.9 -7.6 2.9 -12 4.3 -9.9 3.2 -16.2 6.3 -17.2 8.4 -0.4 0.9 -0.8 21.9 -0.8 46.6 -0.1 30.1 -0.5 47.5 -1.3 52.5 -2.9 17.9 -3.4 20.9 -4.8 27.7 -1.4 7.3 -6.3 22.4 -12.7 38.8 -1.9 5 -4.1 11.5 -5 14.5 -1.7 5.8 -2.5 7 -19.3 29.2 -5.6 7.3 -10.9 14.9 -11.9 16.8 -2.1 4 -16.1 17.9 -22 21.7 -2.2 1.5 -6.5 5 -9.5 7.8 -3 2.8 -7.1 6.2 -9 7.5 -1.9 1.3 -5.5 4.2 -8 6.5 -4 3.7 -15.4 10.5 -29 17.1 -2.5 1.2 -10.3 4.2 -17.5 6.7 -7.1 2.5 -15.1 5.5 -17.7 6.6 -5.7 2.6 -18.5 4.9 -33.8 6.2 -6.3 0.5 -12.2 1.2 -13.1 1.4 -2.4 0.8 -12.8 13.5 -15.6 19.2 -2.2 4.3 -2.4 5.2 -1.3 8.8 1.6 5.3 12 25.9 16.7 33.2 l3.8 5.8 0.5 -4.7 c0.8 -7.4 2.3 -8.5 12.6 -9.1 4.9 -0.4 26.5 -0.6 47.9 -0.6 21.5 0 40.4 -0.4 42 -0.9 3 -0.8 3 -0.9 0.8 -2.1 -3 -1.6 -5 -5.7 -5.9 -11.8 -0.8 -6 -3.8 -11.8 -7.7 -14.7 -2.1 -1.6 -4.3 -2.1 -9 -2.1 -5.8 0 -7 0.4 -19.2 7.2 -16.2 9 -19.9 10.3 -29 10.3 -5.8 0 -7.8 -0.4 -9.8 -2.1 -5.2 -4 -6 -15.5 -1.6 -24.1 6.4 -12.6 13.5 -16.6 49.9 -28 8.6 -2.7 10.4 -2.9 19.5 -2.5 8.9 0.4 10.9 0.9 16.5 3.7 9.2 4.6 13 7.9 18.4 15.9 8.1 12.1 8.9 14.9 8.4 27.1 -0.4 6.8 -1.1 11.7 -2.1 13.7 -1.8 3.3 -8.1 9.3 -10 9.3 -0.7 0 -0.3 0.6 0.7 1.2 1.4 0.7 19.2 0.9 63.1 0.3 33.6 -0.4 70.7 -0.4 82.4 0 20.9 0.7 21.3 0.8 24.3 3.3 6.8 5.8 10.2 21 5.9 26.3 -1.9 2.4 -2.3 2.4 -22.5 2.7 -11.3 0.2 -20.6 0.7 -20.6 1.1 0 0.5 0.7 1.4 1.4 2.1 0.8 0.6 2.9 3.3 4.5 5.9 3.2 5 4.1 11.3 2.1 15.1 -0.9 1.7 -0.4 1.9 5.8 2.6 3.7 0.4 16.6 0.4 28.8 0 12.1 -0.4 27.2 -0.4 33.5 0 l11.4 0.7 3.8 3.9 c6.2 6.5 8 11.5 7.5 20.9 -0.3 5.1 -1 8.5 -1.9 9.4 -2.1 2.1 -10.7 3.5 -22.3 3.6 -12.1 0.2 -16 0.9 -16.4 3.1 -0.2 0.9 1.4 4.2 3.5 7.3 2.1 3.2 4.6 6.9 5.5 8.4 1.1 1.6 1.8 4.5 1.8 7.8 0 4.4 -0.5 5.8 -2.9 8.5 l-2.9 3.3 -31.4 0 c-28.6 0 -31.6 -0.2 -35.1 -1.9 -5.1 -2.5 -9.6 -8 -15.3 -18.9 -2.7 -5 -6.7 -11.1 -8.9 -13.4 l-4 -4.2 -53.7 0 c-47.7 -0.1 -53.9 0.1 -55.3 1.5 -1.7 1.8 -1.6 2.6 2.1 11.8 4.3 10.6 2.4 22 -3.9 24.3 -3.1 1.1 -64.2 0.4 -67.3 -0.7 -3.4 -1.3 -6 -7.6 -7.4 -18 -0.6 -4.7 -1.5 -10.2 -2.1 -12.2 -1.9 -7.2 0.9 -6.8 -48.7 -6.7 -24.6 0.1 -49.6 0.4 -55.7 0.8 l-11 0.6 -1.8 5.4 c-1 3 -2.4 9.7 -3.2 14.9 -1.5 9.8 -3 13.3 -6.6 15.2 -2.5 1.4 -61.9 2.1 -66.6 0.8 -7.6 -2.1 -9.3 -10.2 -4.7 -23.9 3 -9.1 2.9 -12 -0.6 -13 -1.4 -0.4 -25.8 -0.7 -54.2 -0.8 l-51.6 -0.1 -3 2.5 c-3.1 2.6 -8.6 10.8 -14.6 21.7 -4 7.4 -10.1 13.3 -14.8 14.2 -3.5 0.7 -57.3 0.6 -60.3 -0.1z m59.3 -10.8 c1.6 -1.3 4.9 -5.5 7.3 -9.2 2.3 -3.8 7.4 -11.6 11.2 -17.5 l6.9 -10.8 66.4 0 66.4 0 0 3.2 c0 1.8 -2.3 10.2 -5.1 18.7 -4.9 14.7 -5.1 15.5 -3.3 16.8 1.4 1 7.6 1.3 27.4 1.3 29.6 0 29.3 0.1 30.9 -8.3 0.5 -2.8 2 -10.4 3.2 -16.7 1.2 -6.3 2.6 -12.3 3.1 -13.2 0.8 -1.7 5 -1.8 65.8 -1.8 60.8 0 65 0.1 65.8 1.8 0.8 1.5 3.7 15.4 5.8 27.7 0.8 5.1 2.9 9.1 4.9 9.9 0.9 0.3 13 0.6 26.9 0.6 19.5 0 25.6 -0.3 27 -1.3 1.8 -1.3 1.6 -2.1 -3.3 -16.8 -2.8 -8.5 -5.1 -16.9 -5.1 -18.7 l0 -3.2 65.8 0 c36.1 0 66.2 0.4 66.8 0.8 1.4 1 10 13.6 16.8 24.9 3.1 5 7 10.3 8.7 11.7 l3.1 2.6 26.6 -0.2 c16.9 -0.2 26.7 -0.7 26.9 -1.3 0.2 -0.6 -5.3 -7.9 -12.2 -16.3 -10.6 -13 -12.5 -15.8 -12.5 -18.7 l0 -3.5 27.9 -0.2 27.9 -0.3 -2.9 -6 c-1.7 -3.3 -4.1 -7.1 -5.5 -8.5 l-2.5 -2.5 -116.7 0 c-64.2 -0.1 -124.6 -0.2 -134.3 -0.3 l-17.5 -0.2 -1.7 -3.5 c-1.9 -4 -9 -9 -15.2 -10.6 -2.2 -0.6 -12.9 -1.2 -23.8 -1.3 -10.8 -0.2 -19.9 -0.5 -20.1 -0.7 -0.7 -0.9 -10.2 -19.2 -25 -48.1 -19 -37.4 -18.8 -36.3 -9.3 -46.5 3.5 -3.8 8.9 -10 11.9 -13.9 l5.6 -7.1 9.4 -0.6 c24.7 -1.5 56 -11.1 82.6 -25.5 39.6 -21.2 75.8 -58 95.5 -97 8.6 -16.9 13.1 -29.2 18.3 -49.9 7.1 -28.8 7.7 -36 6.9 -86 -0.4 -23.7 -0.4 -44.4 -0.1 -46 0.8 -3.5 0.3 -3.2 28.4 -12.3 12.2 -3.9 22.2 -7.3 22.2 -7.6 0 -1.4 -5.7 -8.7 -8.4 -10.8 -3.4 -2.6 -13.6 -6 -28.6 -9.6 -5.2 -1.3 -10.1 -2.6 -10.8 -3 -0.7 -0.3 -2.8 -4.1 -4.7 -8.4 -10.6 -24.4 -28.7 -43.5 -48.4 -51 -32 -12.3 -66.4 -4.1 -90.4 21.4 -15 15.9 -21.8 31.3 -23.7 53.8 -0.5 6.2 -1.6 12.7 -2.3 14.5 -0.9 2.1 -6.1 7.1 -14.7 14.2 -7.3 6.1 -28.9 24.1 -47.9 40 -19 16 -39.5 33.1 -45.5 38 -6 5 -17.5 14.6 -25.6 21.5 -8 6.9 -20 17 -26.5 22.5 -6.5 5.5 -18.4 15.5 -26.4 22.3 -39.2 33.1 -73.3 61.8 -93.6 78.7 -9.3 7.7 -25.6 21.4 -36.3 30.5 -10.8 9.1 -25.2 21.3 -32.1 27.1 -6.9 5.9 -13.5 11.7 -14.6 12.9 l-2 2.2 3 2.4 c12 9.8 34.7 17.4 52 17.4 13.4 0 29.9 -4.4 43.7 -11.7 9.8 -5.2 16.8 -10.4 37.3 -28.3 23.9 -20.8 24.1 -20.9 29.4 -21 3.9 0 6.2 1.1 19 9.3 26.4 16.7 45.6 25.2 75.5 33.2 l19.1 5.1 0.3 3.8 c0.2 2.3 -1.1 8.2 -3.3 15.4 l-3.7 11.7 9.7 19 c5.3 10.4 14.6 28.3 20.6 39.6 7.9 14.9 10.9 21.6 10.9 24.1 l0 3.5 -10.2 0.8 c-15.7 1.1 -26.6 5.8 -29 12.6 l-1 2.9 -64.6 0 c-241.5 0.2 -256.8 0.3 -259.2 2.5 -2.2 2 -8 12.5 -8 14.5 0 0.7 9.3 1 27.5 1 l27.5 0 0 3.9 c0 3.4 -1.1 5.2 -10.5 16.6 -12.3 14.8 -13.9 17 -13 18.5 0.4 0.6 9.6 1 26.5 1 l25.8 0 3 -2.5z m143.7 -66.2 l20.1 -0.6 -0.1 -8.6 c0 -4.7 0.4 -10.2 0.8 -12.2 l0.9 -3.6 -4.9 -0.6 c-2.6 -0.3 -10.3 -0.1 -17 0.4 -6.8 0.4 -25.1 0.7 -40.7 0.5 -33 -0.5 -28 -2.3 -39.4 14.1 l-7.1 10.2 5.2 0.4 c9.7 0.6 62.1 0.7 82.2 0z m356.7 0.2 c1.6 -0.6 1.5 -1 -1.4 -5.3 -6 -8.7 -13.8 -17.9 -16 -18.9 -2.8 -1.2 -89.4 -1.7 -90.2 -0.5 -0.3 0.5 0.2 3.4 1 6.6 0.8 3.2 1.4 7.6 1.2 9.9 -0.2 3.5 -0.7 4.3 -2.5 4.5 -1.3 0.2 -2.3 1 -2.3 1.8 0 2 -7.9 1.9 -8.6 -0.1 -0.4 -0.8 -1.3 -1.5 -2.1 -1.5 -0.8 0 -3.5 -1.7 -6.1 -3.8 -5.2 -4.2 -15.4 -9.5 -21.7 -11 -2.2 -0.6 -7.6 -1.6 -12 -2.2 -4.4 -0.6 -10 -2.1 -12.5 -3.4 -2.5 -1.3 -6.5 -2.6 -8.9 -3 -2.5 -0.4 -5.7 -1.8 -7.5 -3.2 -1.6 -1.5 -3.2 -2.2 -3.4 -1.6 -0.4 1.3 5.6 12.8 7.6 14.5 1 0.8 7.9 1.4 22.1 1.7 24 0.7 26.9 1.6 34.7 10.4 l4.5 5.1 61.1 0.3 c33.6 0.1 61.9 0 63 -0.3z m-446.5 -14.8 c2.9 -3.9 7.2 -10.1 9.5 -13.7 l4.3 -6.5 56 0 56 0 0.3 3 c0.1 1.7 -1.3 7.7 -3.2 13.5 l-3.5 10.5 23.2 0.3 c12.7 0.1 23.4 -0.1 23.8 -0.5 0.6 -0.7 5.9 -24.6 5.9 -26.7 0 -0.3 3.9 -0.6 8.6 -0.6 l8.5 0 -3.2 -5.7 c-1.8 -3.2 -3.6 -6 -4 -6.3 -1.2 -0.8 -261.5 -0.4 -262.8 0.4 -0.6 0.4 -2.3 2.7 -3.7 5.2 -2.2 3.8 -2.5 4.8 -1.3 5.5 0.8 0.5 12.8 0.9 26.7 0.9 l25.2 0 0 3.6 c0 3.1 -1.2 5.2 -7.3 12.8 -4 5 -7.7 9.7 -8.1 10.4 -0.6 0.9 4 1.2 21.6 1.2 l22.3 0 5.2 -7.3z m502.3 6.9 c0 -0.2 -3.6 -4.9 -8 -10.3 -6.8 -8.3 -8 -10.4 -8 -13.5 l0 -3.8 25.9 0 c14.3 0 26.2 -0.4 26.5 -0.8 0.9 -1.5 -5.3 -11.2 -7.2 -11.2 -0.9 0 -44.7 -0.2 -97.2 -0.5 -52.5 -0.3 -112.9 -0.2 -134.2 0.2 l-38.8 0.6 3.2 5.9 3.3 5.8 5.2 0 c4.7 0 5.5 0.3 7.5 3 2.1 2.9 2.5 3 9.4 3 4 0 9.7 0.5 12.6 1.1 8 1.7 19 7.1 24.4 12 2.6 2.4 4.5 3.7 4.2 2.8 -2.5 -6.6 -4.8 -15.7 -4.8 -18.5 l0 -3.4 56.2 0.2 56.3 0.3 6.2 9.4 c3.4 5.2 7.5 11.4 9.2 13.8 l3.1 4.3 22.5 0 c12.4 0 22.5 -0.2 22.5 -0.4z m-134.1 -64.2 c11.4 -9.6 1.6 -34 -17.3 -43.3 -12.6 -6.1 -12.8 -6.1 -33.7 1.4 -24.8 9 -29.8 12 -37 21.9 -3.4 4.6 -3.5 5.6 -1.1 8.6 2.5 3.1 4.9 2.2 20.5 -7.3 19.5 -11.8 17.9 -11.2 29.2 -11.2 11 0 14.2 1.1 20.3 6.9 4.7 4.3 6.2 7.7 6.2 13.7 0 4.5 0.4 5.5 3.4 8.5 4.1 4.1 5.5 4.2 9.5 0.8z"/>
  <path d="M426 568.9 c-24 -2.8 -53.3 -13.1 -56.7 -19.9 -1.8 -3.5 -1.6 -13.5 0.2 -17 3.9 -7.5 11.8 -7.8 32.1 -1.1 8.2 2.8 19 5.7 23.9 6.5 11.5 2 30.3 2 42.5 0.1 20.9 -3.4 45.2 -14 63.3 -27.6 34.8 -26.1 55.2 -70.2 51.7 -111.9 -0.5 -6.3 -1 -14.8 -1 -18.8 0 -6.8 0.2 -7.4 3.4 -10.9 2.9 -3.3 3.9 -3.7 9.2 -4.1 14.6 -1 16.9 2.1 19.6 26.3 1.3 11.3 0 34.3 -2.7 50 -3.4 19.3 -12.7 41.1 -25.6 60.1 -7.2 10.5 -24.6 28.4 -36.4 37.5 -15.8 12.1 -38.9 22.2 -64.1 27.9 -15.2 3.5 -42.5 4.8 -59.4 2.9z m42.5 -12 c14.1 -1.9 30.1 -6.7 41.4 -12.4 19.4 -9.7 26.9 -13.9 32.1 -17.8 6.1 -4.6 21.8 -20.2 25.8 -25.7 1.4 -1.9 3.8 -4.8 5.3 -6.5 12.5 -13.8 22.2 -36.9 28.1 -66.5 3.5 -18.1 2.4 -47.2 -2 -52.2 -2.1 -2.4 -5.9 -2.3 -7.2 0.2 -0.8 1.4 -0.9 7.4 -0.4 18.8 1 26 -1.6 50.8 -6.9 63.3 -2.1 5 -11.5 21 -19.9 34 -6.8 10.4 -13.4 17.9 -15.8 17.9 -0.5 0 -3.5 2.2 -6.7 4.8 -3.2 2.7 -7.8 6.2 -10.3 7.8 -2.5 1.6 -5.1 3.5 -5.8 4.1 -0.7 0.7 -1.7 1.3 -2.1 1.3 -0.4 0 -1.7 0.9 -2.9 2.1 -2.7 2.4 -13.7 8.4 -17.2 9.2 -1.4 0.3 -4.5 1.2 -7 2.1 -2.5 0.8 -9 2.2 -14.5 3.1 -5.5 0.9 -13.8 2.4 -18.5 3.3 -12.9 2.6 -33.6 2.3 -41.8 -0.6 -3.4 -1.2 -7.5 -2.2 -9 -2.2 -3 0 -14.1 -2.8 -24.4 -6.2 -5.6 -1.9 -6.9 -2 -8.2 -0.8 -2.2 1.8 -1.9 2.3 4.3 6.4 8.6 5.8 24.4 10.5 41.6 12.5 5.5 0.6 11.1 1.3 12.5 1.5 3.4 0.6 21 -0.3 29.5 -1.5z"/>
  <path d="M2 505.5 c0 -106.8 0 -107.5 2 -107.5 2 0 2 0.7 2 107.5 0 106.8 0 107.5 -2 107.5 -2 0 -2 -0.7 -2 -107.5z"/>
  <path d="M1003 180.3 c0 -6.2 -2.2 -18.3 -5.5 -30.8 -3.9 -14.2 -6.5 -26.5 -6.5 -30.3 0 -2.9 0.3 -3.3 2.2 -3 1.6 0.2 2.8 1.8 4.5 6.3 6 15.1 11.3 40.2 11.3 53.1 l0 9.4 -3 0 c-2.9 0 -3 -0.1 -3 -4.7z"/>
  <path d="M3.4 167.3 c1.5 -17 11 -50.3 14.4 -50.3 1.1 0 1.3 1.1 0.9 4.8 -0.9 8.8 -3.7 23.6 -5 27.2 -0.8 1.9 -2.4 8 -3.6 13.5 -3 13.1 -2.7 12.5 -5.2 12.5 -2.1 0 -2.2 -0.3 -1.5 -7.7z"/>
  <path d="M25 99.3 c0 -1.4 12.4 -21.4 15.3 -24.6 l2.8 -3.2 -0.4 4.7 c-0.3 2.6 -1.3 5.8 -2.5 7.3 -1.1 1.4 -2.8 4.8 -3.7 7.4 -1.8 5.5 -5.4 9.1 -9 9.1 -1.4 0 -2.5 -0.3 -2.5 -0.7z"/>
  <path d="M971.3 84.3 c-2.3 -3.2 -5.1 -6.7 -6.3 -7.8 -1.2 -1.1 -2.8 -3.2 -3.6 -4.7 -1.6 -3 -1.9 -9.8 -0.5 -9.8 1.8 0 16.4 18.9 20 25.8 1.1 2.1 1 2.2 -2.2 2.2 -3 0 -3.9 -0.7 -7.4 -5.7z"/>
  <path d="M72.5 42 c1.6 -2.6 27.3 -19 29.7 -19 1.3 0 0.9 3.5 -0.7 7.4 -1.7 4 -7.5 7.6 -12.3 7.6 -1.5 0 -3.7 0.7 -4.8 1.5 -1 0.8 -2.7 1.5 -3.6 1.5 -1 0 -1.8 0.5 -1.8 1 0 0.6 -1.6 1 -3.6 1 -2 0 -3.3 -0.4 -2.9 -1z"/>
  <path d="M925.5 38.1 c-0.5 -0.8 -4.1 -1.8 -14.2 -3.7 -2.9 -0.5 -8.3 -8.1 -8.3 -11.6 0 -1.5 0.2 -2.8 0.5 -2.8 2.7 0 31.5 16.7 31.5 18.2 0 1.1 -8.8 1 -9.5 -0.1z"/>
  <path d="M871.5 14.4 c-3.3 -0.7 -9.8 -1.8 -14.5 -2.4 -4.7 -0.5 -12.3 -1.5 -17 -2.1 -5.7 -0.7 -58.4 -1.2 -159.5 -1.5 -83 -0.2 -155 -0.4 -160 -0.5 -45.4 -0.5 -339.7 1.1 -351 2 -21.3 1.7 -34.5 3.3 -34.5 4.2 0 0.5 -1.6 0.9 -3.5 0.9 -2.3 0 -3.5 -0.5 -3.5 -1.4 0 -1.5 9.6 -4.6 25 -7.9 l10.5 -2.2 345 0 345 0 9.5 2.3 c23.8 5.7 33 10.3 20.3 10.1 -3.2 -0.1 -8.5 -0.7 -11.8 -1.5z"/>
 </g>
 <g fill="#98c130">
  <path d="M845 1007.3 c0 -1.5 -385.3 -2.4 -612.2 -1.4 -58.4 0.2 -68.8 0.1 -75 -1.3 -4 -0.8 -11.7 -2.5 -17 -3.6 -5.4 -1.2 -10.2 -1.9 -10.8 -1.5 -0.5 0.3 -1 0.1 -1 -0.5 0 -0.7 -0.8 -0.9 -1.9 -0.5 -1.1 0.3 -5.2 -0.8 -9.5 -2.5 -44.9 -17.8 -81.8 -53.9 -100.7 -98.6 -7.1 -16.7 -10.6 -29.7 -12.8 -47.4 -1.4 -11.1 -1.6 -676.2 -0.2 -678.7 0.6 -1 2 -6.3 3.2 -11.8 1.2 -5.5 2.8 -11.6 3.6 -13.5 0.7 -2 2 -7.6 2.8 -12.5 2.4 -14.7 3 -16.9 7.5 -26.3 2.7 -5.7 5.5 -10 7.5 -11.6 2.1 -1.7 4 -4.7 5.4 -8.6 1.2 -3.3 2.6 -6.2 3.1 -6.5 0.4 -0.3 1.8 -2.6 3 -5.1 2.5 -5.1 21.1 -24.9 29.2 -31.2 7.3 -5.5 13.9 -9.1 17.9 -9.5 5.3 -0.6 9.5 -3.3 11.6 -7.4 1.6 -3.3 3 -4.2 11.5 -7.9 8.9 -3.9 21.6 -8.3 27.9 -9.8 1.4 -0.3 11.3 -1.3 22 -2.3 16.7 -1.4 36.6 -1.7 141.9 -1.9 234.5 -0.5 276.9 -0.5 343.5 -0.3 36.9 0.2 83.9 0.2 104.5 0.1 36.3 -0.2 96 1.1 97.7 2.1 0.4 0.3 4.2 0.8 8.3 1.2 4.1 0.4 11.7 1.5 16.9 2.6 5.1 1 10.7 1.9 12.3 1.9 3.5 0 22 7.8 21.3 9 -0.8 1.3 5.6 9 7.8 9.4 10.1 1.9 13.7 2.9 14.2 3.7 0.4 0.5 1.5 0.9 2.5 0.9 4 0 33.9 26.7 32.5 29 -0.8 1.3 1.8 6 4.5 8.5 1.2 1.1 4 4.6 6.3 7.8 2.2 3.1 4.6 5.7 5.3 5.7 2 0 17.1 30.9 15.6 31.9 -1.2 0.7 0.5 9.8 5.3 27.6 3.3 12.5 5.5 24.6 5.5 30.8 0 3.5 0.4 4.7 1.5 4.7 1.3 0 1.5 37.3 1.5 329.4 0 181.1 -0.3 332.1 -0.6 335.5 -0.5 4.7 -1.1 6.1 -2.3 6.1 -1.4 0 -1.4 0.2 -0.1 1 1.3 0.8 1.3 1 -0.1 1 -2.2 0 -5.7 15.9 -3.7 17.1 1 0.7 0.9 0.9 -0.4 0.9 -2 0 -2.4 2.6 -0.5 3.3 0.9 0.3 0.4 2.6 -1.7 8.8 -7.4 21.3 -20.9 45.3 -32.9 58.8 -9.8 11 -29 28.3 -37.1 33.6 -13.8 8.9 -44.3 23.4 -46.6 22 -1.4 -0.9 -13.9 1.4 -17.3 3.2 -1.7 0.8 -3.8 2.2 -4.6 3 -1.1 1.2 -2.8 1.4 -6.8 0.9 -3.3 -0.4 -5.3 -0.2 -5.3 0.4 0 0.5 -0.9 1 -2 1 -1.1 0 -2 -0.3 -2 -0.7z m-621.2 -194.9 c4.7 -0.9 10.8 -6.8 14.8 -14.2 6 -10.9 11.5 -19.1 14.6 -21.8 l3 -2.5 56.4 0.3 c44.5 0.2 56.6 0.6 57.6 1.6 2 2 1.3 9.3 -1.8 18.8 -3.1 9.6 -2.8 12.3 1.9 15.8 2.7 2 3.8 2.1 32.3 1.8 17.8 -0.1 30.3 -0.6 31.5 -1.2 3.4 -1.9 4.9 -5.5 6.4 -15.2 0.8 -5.2 2.2 -11.9 3.2 -14.9 l1.8 -5.4 11 -0.6 c6.1 -0.4 32.5 -0.7 58.7 -0.8 52.9 -0.1 49.8 -0.5 51.7 6.7 0.6 2 1.5 7.5 2.1 12.2 1.4 10.3 4 16.7 7.4 17.9 3 1.2 58.3 1.9 61.3 0.8 2.7 -1 6.3 -6.6 6.3 -9.8 0 -1.3 -1.3 -5.8 -3 -9.9 -1.6 -4.1 -2.9 -9.2 -3 -11.2 0 -6 1.5 -6.8 14.8 -7 6.4 -0.1 12.6 -0.1 13.7 0 1.1 0 21.3 0.1 44.9 0.2 l43 0 4 4.3 c2.3 2.3 6.3 8.4 9 13.4 5.7 10.9 10.2 16.4 15.3 18.9 3.4 1.7 6.5 1.9 32.1 1.9 l28.4 0 2.9 -3.3 c3.3 -3.7 3.6 -6.6 1.1 -10.3 -0.9 -1.5 -3.4 -5.2 -5.4 -8.3 -4.5 -6.6 -5.8 -12.5 -3.4 -14.5 1.1 -1 6.6 -1.6 17.4 -2.1 14.7 -0.8 20.3 -1.7 21.5 -3.7 0.3 -0.5 -1.3 -0.7 -3.6 -0.5 -4 0.3 -4.1 0.3 -1.7 -1 1.4 -0.8 2.6 -2.4 2.8 -3.6 0.4 -2.7 1 -2.8 2.8 -0.4 1.2 1.5 1.3 1.2 1.4 -2.4 0 -5.1 -2.9 -11.2 -7.9 -16.4 -3.7 -3.9 -3.9 -4 -11.2 -4.1 -4.1 -0.1 -24.3 -0.4 -44.9 -0.6 -40.2 -0.5 -43.9 -0.5 -147.5 0 l-68 0.3 -4.7 -5.2 c-8.2 -8.9 -10.9 -9.7 -34.9 -10.4 -14.2 -0.3 -21.1 -0.9 -22.1 -1.7 -2.2 -1.9 -7.3 -12.1 -8.8 -17.8 -0.7 -2.7 -3.7 -8.7 -6.6 -13.2 -8.7 -13.3 -20.4 -37.8 -20.4 -42.5 0 -4.9 14.6 -25.9 18.9 -27.3 0.9 -0.2 6.8 -0.9 13.1 -1.4 15.3 -1.3 28.1 -3.6 33.8 -6.2 2.6 -1.1 10.6 -4.1 17.7 -6.6 7.2 -2.5 15 -5.5 17.5 -6.7 13.6 -6.6 25 -13.4 29 -17.1 2.5 -2.3 6.1 -5.2 8 -6.5 1.9 -1.3 6 -4.7 9 -7.5 3 -2.8 7.3 -6.3 9.5 -7.8 5.9 -3.8 19.9 -17.7 22 -21.7 1 -1.9 6.3 -9.5 11.9 -16.8 16.8 -22.2 17.6 -23.4 19.3 -29.2 0.9 -3 3.1 -9.5 5 -14.5 9.3 -24 12.2 -34 15.2 -52.5 3.3 -20.2 3.5 -23.8 3.6 -67 0 -24.5 0.4 -45.2 0.8 -46.1 1.1 -2.2 7.5 -5.2 17.7 -8.5 4.7 -1.5 9 -3 9.5 -3.4 0.6 -0.4 4.6 -2 9 -3.5 4.4 -1.5 8.5 -3.2 9 -3.8 0.7 -0.6 0.5 -0.8 -0.5 -0.4 -0.8 0.3 -10.7 3.6 -22 7.2 -24.2 7.9 -25.8 8.5 -26.4 10.5 -0.2 0.8 -0.4 -0.2 -0.5 -2.2 -0.1 -3.8 -0.1 -3.8 4 -3.8 4.1 0 18.6 -4.4 26.4 -7.9 2.2 -1 5.2 -2.1 6.7 -2.5 1.5 -0.3 3.3 -1.3 4.2 -2.1 0.8 -0.8 2.4 -1.5 3.5 -1.5 1.2 0 2.1 -0.4 2.1 -1 0 -0.5 0.7 -1 1.5 -1 2.2 0 1.9 -1.4 -1.6 -6.5 -1.7 -2.5 -2.9 -4.8 -2.6 -5.1 1.2 -1.2 7.1 9.2 7.1 12.4 0 3.1 0.1 3.2 1.4 1.5 1.8 -2.4 0.9 -6.1 -2.8 -11.6 -1.6 -2.5 -3 -5 -3 -5.6 0 -0.6 -2.3 -2.4 -5.1 -4 -2.8 -1.5 -5 -3.1 -5 -3.5 0.1 -0.3 0.1 -1 0.1 -1.5 0 -0.4 -4.4 -1 -9.7 -1.3 -7.4 -0.4 -10.8 -1 -14 -2.6 -2.3 -1.2 -5.1 -2.2 -6.2 -2.2 -2.3 0 -7.9 -6.4 -8.8 -10 -0.6 -2.5 -4.9 -11.6 -8.2 -17.5 -1.4 -2.5 -16.2 -17.9 -22.4 -23.4 -1 -0.9 -2.5 -3 -3.2 -4.8 -1.5 -3.6 -2.2 -3.8 -20.2 -7.4 -9.8 -1.9 -13.1 -2.1 -28 -1.6 -9.2 0.3 -20.2 1.3 -24.3 2.1 -4.1 0.9 -9.7 2 -12.5 2.6 -3.7 0.8 -6.1 2.1 -9.5 5.4 -2.5 2.3 -7.2 6.3 -10.5 8.8 -16.3 12.3 -21.5 20.1 -29.6 43.6 -5.2 15.1 -5.8 17.8 -5.9 23.3 0 9.9 -4.8 17.1 -18.3 27.6 -3.1 2.4 -7.2 5.8 -9 7.4 -1.7 1.7 -6.2 5 -9.8 7.5 -3.7 2.4 -7.2 5.1 -7.9 5.9 -0.7 0.8 -4.2 3.6 -7.8 6.2 -3.7 2.6 -9.8 7.9 -13.7 11.8 -8 8.1 -18.3 16.9 -37 31.7 -7.1 5.6 -18.2 14.7 -24.5 20.3 -6.3 5.5 -16.1 13.7 -21.6 18.2 -5.6 4.5 -12.2 10.3 -14.5 12.9 -2.4 2.6 -6.3 6.1 -8.5 7.8 -10.8 8.1 -33.4 26.7 -33.4 27.5 0 0.4 -4.6 4.2 -10.1 8.2 -12.2 8.9 -16.2 12.2 -31.7 26 -6.5 5.9 -17 14.8 -23.3 19.8 -6.3 5 -12.5 10 -13.8 11.1 -1.3 1.2 -4.4 3.7 -7 5.8 -2.5 2 -7.1 6 -10.1 8.8 -8.6 8 -12.8 11.6 -22 18.4 -4.7 3.5 -10.4 8.3 -12.7 10.7 -2.4 2.4 -4.7 4.3 -5.2 4.3 -1.6 0 -23.9 22.4 -24.9 25 -1.4 3.7 0 6.3 6.5 11.7 4.4 3.6 8.9 6 18.2 9.6 21.7 8.5 36.5 9.7 59 5.1 24 -4.9 36.8 -11.4 50.9 -25.8 9.5 -9.8 19.4 -17.4 28.2 -21.8 1.4 -0.6 3.4 -1.9 4.5 -2.9 2.5 -2.1 9.9 -3.1 13.4 -1.8 2.8 1.1 8.9 5 13.2 8.5 1.5 1.1 9.3 4.9 17.5 8.4 8.2 3.4 20.3 8.7 26.8 11.7 13.1 6 18.8 7.9 28.6 9.3 3.6 0.5 7.9 1.4 9.4 2 2.7 1 2.8 1.3 2.2 5.3 -0.4 2.3 -1.6 7.1 -2.6 10.6 -1.1 3.5 -2 8 -2 10.1 0 4.9 4 14.3 12.5 29.5 5.6 10.1 9.6 18.2 12.1 24.9 1.5 3.7 4.4 9.7 6.6 13.3 5.6 9.2 5.1 10.4 -4.5 12 -9.9 1.6 -14.8 4.2 -21.5 11.1 l-5.4 5.5 -25.2 -0.8 c-13.8 -0.5 -35.4 -0.7 -48.1 -0.4 -29.7 0.5 -97.3 0.5 -114 -0.1 -7.1 -0.2 -39.3 -0.1 -71.4 0.3 -44.3 0.6 -59.1 1.1 -61.5 2.1 -5.2 2.2 -11.4 12.9 -11.6 19.9 0 3.4 2.2 3.6 4 0.2 1.9 -3.6 2.8 -3.1 3.2 2 0.3 4.8 -0.5 5.5 -3.4 2.8 -2.1 -1.9 -3.1 -1.4 -2.2 1.1 1.2 3.1 4.8 3.9 19.9 4.6 16.4 0.7 20.8 1.9 21.3 5.9 0.6 3.9 -0.6 6.4 -5.5 11.6 -5.8 6.1 -7.7 10.9 -5.8 14.5 1.6 3.2 4.4 5.7 7 6.3 3 0.7 50.8 0.8 54.3 0.1z m225.7 -78.5 c0.9 -0.9 2.9 -6 4.5 -11.4 1.7 -5.4 3.5 -10.4 4.1 -11.1 0.6 -0.7 3.8 -1.6 7 -2 5 -0.6 6.3 -1.1 7.9 -3.4 1.1 -1.6 2 -3.4 2 -4 0 -2.9 -7.3 -16.1 -9.7 -17.7 -2.4 -1.6 -12.1 -1.7 -136.3 -1.7 -150.6 0 -136.8 -0.7 -141 8 -1.3 2.6 -2.5 6.8 -2.8 9.4 -0.7 7.4 0.9 8 23.6 9.8 10.3 0.8 19.1 1.8 19.6 2.2 0.5 0.5 -0.8 4.3 -2.9 8.8 -3.2 6.9 -3.5 8.2 -2.4 9.5 1.2 1.3 1.6 1.2 2.6 -0.7 l1.2 -2.1 0.1 2.1 c0 1.4 0.8 2.4 2.3 2.8 1.2 0.3 11.8 0.6 23.5 0.6 18.2 0 21.2 -0.2 21.2 -1.5 0 -0.8 0.8 -1.5 1.8 -1.5 1.1 0 4.1 -3.4 8.1 -9.2 6.9 -10 10 -13.8 11.3 -13.8 0.9 0 -6.5 11.7 -13.1 20.8 l-4.6 6.2 -26.8 -0.2 c-24.9 -0.3 -30.1 0.1 -24.4 1.6 3.8 1 49.7 0.7 51.7 -0.4 1 -0.6 5.3 -5.9 9.4 -11.8 4.1 -6 8.1 -11.3 8.8 -11.9 1.8 -1.5 97.2 -2.3 98.6 -0.9 0.3 0.4 -0.2 4.1 -1.1 8.4 -0.9 4.2 -1.7 8.7 -1.7 10 0 2.5 2.7 3.1 3.6 0.7 0.9 -2.3 2.3 -1.8 3 1.1 l0.7 2.5 22.7 -0.3 c17.5 -0.2 23.1 -0.6 24.4 -1.7 0.9 -0.7 2.6 -4.8 3.8 -9 2.8 -9.4 3.4 -7.4 1 3.4 l-1.7 8 -28.3 0 c-18.3 0 -28.1 0.3 -27.9 1 0.5 1.6 11.4 2 33.9 1.5 17.1 -0.4 21 -0.8 22.3 -2.1z m333.2 1.5 c10.2 -1.3 3.2 -1.9 -22 -1.9 l-27.2 0 -5.4 -8 c-3 -4.4 -4.7 -7.3 -3.7 -6.5 1 0.8 3.5 4 5.7 7.1 2.1 3.1 4.5 5.9 5.4 6.3 2.2 0.8 43.3 0.6 46.4 -0.3 1.4 -0.4 2.6 -1.1 2.8 -1.6 0.1 -0.6 -1.5 -3.3 -3.6 -6.2 -2.2 -2.8 -4.7 -6.4 -5.6 -8 -1.7 -2.8 -1.7 -2.8 0.1 -0.7 1.1 1.2 4.4 5.4 7.4 9.3 3.6 4.7 5.6 6.6 5.8 5.5 0.3 -1.4 -1.7 -4.7 -9.7 -16.1 -1.3 -1.8 -2.1 -3.7 -1.7 -4.1 0.4 -0.4 10.4 -0.9 22.3 -1.2 21.1 -0.5 21.5 -0.5 23.4 -2.9 1 -1.3 1.9 -3.4 1.9 -4.7 0 -3.8 -4.5 -12.8 -7.7 -15.5 -2.9 -2.5 -3.8 -2.6 -18.4 -3.2 -8.5 -0.3 -45.6 -0.3 -82.6 -0.1 -59.1 0.4 -67.6 0.3 -70.8 -1.1 -3.1 -1.2 -4.8 -1.3 -10.4 -0.4 -3.9 0.7 -23.7 1.2 -49.1 1.4 -54.1 0.2 -50.5 0.1 -53 2.7 -2.7 2.9 -2.5 6.7 0.5 12.5 3.4 6.2 8.1 10.1 13.6 10.9 2.4 0.4 6.4 1.7 8.9 3 2.5 1.3 8.1 2.8 12.5 3.4 4.4 0.6 9.8 1.6 12 2.2 6.3 1.5 16.5 6.8 21.7 11 4.6 3.7 6.8 4.7 6.8 2.9 0 -0.5 -2.5 -3.2 -5.6 -6 -6.9 -6.3 -6.3 -6.6 1 -0.6 7.6 6.2 10.4 5.8 8.4 -1 -1.7 -6.1 -0.6 -5.8 1.6 0.5 1.3 3.6 2.1 7 1.8 7.5 -0.3 0.6 0.1 0.5 0.8 -0.2 1 -1 1 -2.4 -0.4 -7.7 -1.8 -7.3 -2.1 -12.2 -0.6 -13.1 0.5 -0.3 13.4 -0.5 28.7 -0.5 15.3 0.1 35.9 0.1 45.9 0 12.3 -0.1 18.9 0.3 20.7 1.1 2.7 1.2 10.2 10 16.5 19.1 3.3 4.8 4.7 5.5 11.2 6 5.5 0.5 39 -0.2 43.7 -0.8z m-135.4 -60.5 c3.3 -1.7 7.7 -6 9.3 -9.2 0.8 -1.5 1.7 -6.3 2 -10.7 0.6 -9.2 -0.5 -12.6 -8.2 -24.1 -5.4 -7.9 -9.2 -11.3 -18.1 -15.8 -9.6 -4.8 -18 -5.1 -30.3 -1.3 -28.7 9 -40.3 14.2 -45.1 20.4 -8.4 10.7 -9.6 20.7 -3.1 25.8 2.2 1.8 3.7 2.1 8.3 1.8 5.8 -0.4 11 -2.7 29.9 -12.9 l9.5 -5.1 8.3 0.4 c6.2 0.3 8.9 0.9 11 2.5 3.8 2.8 6.9 8.6 7.6 14.6 0.9 6.3 2 8.5 6 11.9 3.4 3 9 3.7 12.9 1.7z"/>
  <path d="M397.2 810 l-14.7 -0.6 13.3 -0.2 c8 -0.1 13.2 -0.6 13.2 -1.2 0 -0.5 1.6 -1 3.5 -1 1.9 0 3.5 0.5 3.5 1 0 0.6 2.9 1 6.8 1 7.7 0 10.6 -1.4 12.9 -6.4 l1.4 -3.1 -0.6 3.5 c-0.3 1.9 -1.2 4.2 -2.1 5 -1.9 1.9 -16.9 2.7 -37.2 2z"/>
  <path d="M167 808.1 c-1.6 -3.1 -1.2 -3.6 1.3 -1.4 1.2 1.2 3.1 2.3 4.2 2.6 1.3 0.3 0.9 0.5 -1.2 0.6 -2.2 0.1 -3.5 -0.5 -4.3 -1.8z"/>
  <path d="M221.6 809.3 c3.8 -0.7 10.3 -7.3 14 -14.1 5.3 -9.7 9.5 -16.2 12.8 -19.9 5.3 -6.2 4.6 -3.3 -1.7 6.5 -3.5 5.3 -8.3 12.7 -10.6 16.5 -5.5 8.5 -9.2 11.7 -13.4 11.6 -2.2 -0.1 -2.5 -0.3 -1.1 -0.6z"/>
  <path d="M373.2 809.3 c-0.7 -0.2 -1.7 -1.4 -2.4 -2.6 -1.1 -2.2 -1 -2.2 0.9 -0.4 1.2 1 3.4 2.2 4.9 2.7 2.8 0.8 2.8 0.8 0.4 0.8 -1.4 0 -3.1 -0.2 -3.8 -0.5z"/>
  <path d="M578.4 808.4 c-1 -0.8 -1.2 -1.2 -0.4 -0.7 0.8 0.4 9.2 1.1 18.5 1.4 l17 0.5 -16.6 0.2 c-13.7 0.2 -16.8 -0.1 -18.5 -1.4z"/>
  <path d="M631.9 809 c4 -0.6 8 -3.8 8.1 -6.3 0 -1.5 2 0.4 2 1.9 0 3.2 -3.8 5.4 -9.2 5.3 l-5.3 -0.2 4.4 -0.7z"/>
  <path d="M782.2 806.4 l-3.7 -3.6 3.8 2.8 c2.7 1.9 5.6 2.9 10 3.4 l6.2 0.7 -6.3 0.2 c-5.9 0.1 -6.4 -0.1 -10 -3.5z"/>
  <path d="M837.8 809.3 c1.7 -0.2 3.2 -0.9 3.2 -1.5 0 -0.6 1 -1.9 2.1 -2.9 2 -1.7 2.1 -2 0.5 -4.1 -4.1 -5.8 -4.5 -7 -1.2 -3.3 7 7.5 6.1 11.9 -2.5 12.1 -3 0.1 -3.9 -0.1 -2.1 -0.3z"/>
  <path d="M637.6 794 c-1.4 -3.9 -2.6 -7.9 -2.5 -8.8 0 -0.9 1.4 2.1 3 6.7 3.5 10.3 3.2 11.9 -0.5 2.1z"/>
  <path d="M437.1 796.7 c-0.1 -3.2 2.6 -16.8 4 -20 0.7 -1.7 0.8 -1.4 0.2 1.3 -3.3 17.8 -4.1 21.1 -4.2 18.7z"/>
  <path d="M763 778 c-1.2 -1.6 -1.9 -3 -1.6 -3 0.2 0 1.4 1.4 2.6 3 1.2 1.7 1.9 3 1.6 3 -0.2 0 -1.4 -1.3 -2.6 -3z"/>
  <path d="M659.8 770.2 c-1 -0.2 -1.8 -1 -1.8 -1.8 0 -1 1.4 -1.4 5.5 -1.4 4.2 0 5.5 0.3 5.5 1.5 0 0.8 -0.6 1.5 -1.2 1.6 -0.7 0 -2.4 0.1 -3.8 0.2 -1.4 0.2 -3.3 0.1 -4.2 -0.1z"/>
  <path d="M870 756.5 c0 -5.3 1.3 -4.6 4.8 2.8 0.2 0.4 -0.8 0.7 -2.2 0.7 -2.3 0 -2.6 -0.4 -2.6 -3.5z"/>
  <path d="M144 749 c0 -1.4 3.1 -2.8 5.1 -2.3 3.4 0.9 2.2 3.3 -1.6 3.3 -1.9 0 -3.5 -0.4 -3.5 -1z"/>
  <path d="M860 748 c0 -2.1 1 -2.4 4.8 -1.4 3.6 1 2.7 3.4 -1.3 3.4 -2.8 0 -3.5 -0.4 -3.5 -2z"/>
  <path d="M468.7 743.1 c0.3 -1.1 1.4 -2.7 2.4 -3.7 1.8 -1.7 1.9 -1.6 1.9 1.9 0 3.2 -0.3 3.7 -2.4 3.7 -1.9 0 -2.3 -0.4 -1.9 -1.9z"/>
  <path d="M592 739.8 c-4.1 -4.8 -4.2 -5.1 -1.2 -3 2.5 1.9 7.2 8.2 6 8.2 -0.2 0 -2.3 -2.4 -4.8 -5.2z"/>
  <path d="M533.3 725.8 c-1.2 -1.6 -2.4 -4.8 -1.8 -4.8 0.2 0 1.1 1.4 2 3 1.6 3.1 1.5 4 -0.2 1.8z"/>
  <path d="M528.5 716.9 c-0.9 -1.7 -1.5 -3.3 -1.3 -3.5 0.3 -0.2 1.2 1.2 2.1 3.1 2.1 4.3 1.3 4.7 -0.8 0.4z"/>
  <path d="M512 684 c-1.7 -3.3 -2.8 -6 -2.5 -6 0.2 0 1.8 2.7 3.5 6 1.7 3.3 2.8 6 2.5 6 -0.2 0 -1.8 -2.7 -3.5 -6z"/>
  <path d="M502.9 638.4 c3 -6.1 13.8 -18.4 16.2 -18.4 1.1 0 -11.6 16.3 -15.5 19.9 l-2.6 2.4 1.9 -3.9z"/>
  <path d="M236.8 631.3 c-1 -0.2 -1.8 -1.1 -1.8 -1.9 0 -1 1.3 -1.4 4.5 -1.4 3.8 0 4.5 0.3 4.5 2 0 1.5 -0.6 2 -2.7 1.9 -1.6 -0.1 -3.6 -0.3 -4.5 -0.6z"/>
  <path d="M259.8 631.3 c0.6 -0.2 1.2 -1.2 1.2 -2 0 -1.3 1 -1.5 6 -1 3.2 0.3 7.8 0.1 10.1 -0.4 8.1 -1.8 4.8 -0.2 -3.9 1.9 -7.7 1.9 -17 3 -13.4 1.5z"/>
  <path d="M214.7 624.6 c-5.3 -2.2 -7.9 -3.6 -6.5 -3.6 0.7 0 13.2 5.1 13.7 5.6 1 1 -1.9 0.2 -7.2 -2z"/>
  <path d="M526.3 619.3 c0.9 -0.2 1.7 -1.1 1.7 -1.9 0 -1 1.3 -1.4 4.5 -1.4 3.2 0 4.5 0.4 4.5 1.4 0 1.7 -3.2 2.6 -8.5 2.5 -2.2 -0.1 -3.2 -0.3 -2.2 -0.6z"/>
  <path d="M194.4 611.8 l-2.9 -3.3 3.3 2.9 c1.7 1.7 3.2 3.1 3.2 3.3 0 0.8 -0.8 0.1 -3.6 -2.9z"/>
  <path d="M567.1 612 c1.3 -0.8 24.8 -9.3 31.4 -11.4 6.8 -2.2 -10.9 5.2 -20.3 8.5 -11.6 4 -14 4.6 -11.1 2.9z"/>
  <path d="M316.5 608 c6.4 -7.1 14.3 -14.4 20.4 -18.6 3.5 -2.5 6.5 -4.3 6.7 -4.2 0.3 0.4 -22.2 20.2 -27.3 24 l-2.8 2.2 3 -3.4z"/>
  <path d="M425 604.3 c-12.2 -5.2 -24 -10.6 -23.7 -10.9 0.3 -0.4 27.7 11.2 28.5 12.1 0.9 0.9 -1.2 0.4 -4.8 -1.2z"/>
  <path d="M603.5 598.2 c0.6 -0.5 5.1 -3.1 10 -5.8 5 -2.6 8.6 -4.3 8 -3.7 -0.5 0.5 -5 3.2 -10 5.8 -4.9 2.6 -8.5 4.3 -8 3.7z"/>
  <path d="M628 583.6 c1.9 -2.1 5.5 -5.2 8 -6.9 2.5 -1.6 7 -5.3 10 -8.2 3 -2.8 7.3 -6.3 9.5 -7.8 5.9 -3.8 19.9 -17.7 22 -21.7 1.8 -3.6 19.2 -27 24.1 -32.5 l2.6 -3 -2.2 4 c-15.4 26.7 -42.8 55.7 -72 76 l-5.5 3.9 3.5 -3.8z"/>
  <path d="M436 561.4 c-1.4 -0.2 -7 -0.9 -12.5 -1.5 -17.3 -2 -33 -6.7 -41.6 -12.5 -6 -4 -6.9 -5 -6.9 -8 0 -5.2 7.5 -6.9 16.1 -3.8 7 2.5 22.1 6.4 25.1 6.4 1.6 0 5.6 1 9 2.2 8.1 2.8 23.5 3 35.8 0.6 4.7 -0.9 13 -2.4 18.5 -3.3 5.5 -0.9 12 -2.3 14.5 -3.1 2.5 -0.9 5.6 -1.8 7 -2.1 3.5 -0.8 14.5 -6.8 17.2 -9.2 1.2 -1.2 2.5 -2.1 2.9 -2.1 0.4 0 1.4 -0.6 2.1 -1.3 0.7 -0.6 3.3 -2.5 5.8 -4.1 2.5 -1.6 7.1 -5.1 10.3 -7.8 3.2 -2.6 6.2 -4.8 6.7 -4.8 2.4 0 9 -7.5 15.8 -17.9 8.4 -13 17.8 -29 19.9 -34 5.3 -12.5 7.8 -35.5 6.8 -62.6 -0.8 -20.4 -0.5 -21.3 6 -22.2 9.1 -1.2 11.7 6.3 11.9 33.9 0.1 12.2 -0.4 17.6 -2.2 26.8 -5.9 29.8 -15.6 52.7 -28.1 66.5 -1.5 1.7 -3.9 4.6 -5.3 6.5 -4 5.5 -19.7 21.1 -25.8 25.7 -5.2 3.9 -12.7 8.1 -32.1 17.8 -11.3 5.6 -27.1 10.4 -41.5 12.5 -8 1.1 -31.6 2.1 -35.4 1.4z"/>
  <path d="M368 544.5 c0 -2.2 0.5 -3.5 1.3 -3.5 0.8 0 1.8 1.6 2.4 3.5 1.1 3.3 1 3.5 -1.3 3.5 -2.1 0 -2.4 -0.5 -2.4 -3.5z"/>
  <path d="M460.5 541 c1.7 -0.4 4.8 -0.8 7 -0.8 l4 0.1 -4.5 0.8 c-2.5 0.4 -5.6 0.7 -7 0.7 -2.3 0 -2.2 -0.1 0.5 -0.8z"/>
  <path d="M420 540 c-3.4 -0.7 -3.4 -0.7 -0.5 -0.8 1.7 0 4.1 0.4 5.5 0.8 3.3 1.1 0 1.1 -5 0z"/>
  <path d="M474 539 c1.4 -0.4 3.6 -0.8 5 -0.8 l2.5 0 -2.5 0.8 c-1.4 0.4 -3.6 0.8 -5 0.8 l-2.5 0 2.5 -0.8z"/>
  <path d="M514 525.3 c0 -0.5 1.5 -1.7 3.3 -2.8 1.7 -1 3.4 -2.1 3.7 -2.4 0.3 -0.4 2.5 -1.9 5 -3.5 2.5 -1.6 7.1 -5.1 10.3 -7.8 3.2 -2.6 6.2 -4.8 6.7 -4.8 0.6 0 2.9 -1.6 5.2 -3.6 2.4 -2 1.3 -0.8 -2.3 2.7 -9.3 9 -31.9 24.7 -31.9 22.2z"/>
  <path d="M553.7 494 c0.6 -0.8 3.9 -6 7.4 -11.5 3.6 -5.5 8.4 -13.5 10.9 -17.7 2.4 -4.3 4.5 -7.6 4.7 -7.4 0.8 0.8 -7.8 16.9 -12.7 24 -4.2 6.1 -13 16.9 -10.3 12.6z"/>
  <path d="M709 492.2 c0 -0.7 2.1 -6.8 4.7 -13.5 2.5 -6.7 6.3 -17.1 8.4 -23.2 4.4 -12.8 4.9 -12.7 1.4 0.2 -3.9 14.8 -14.3 40.9 -14.5 36.5z"/>
  <path d="M726.5 441 c0.2 -1.9 1 -7.3 1.9 -12 0.8 -4.7 1.9 -12.5 2.5 -17.5 1.6 -13.5 1.8 -14.4 2 -9.8 0.2 6 -2.7 26.5 -4.9 35.3 -1.1 4.1 -1.8 5.9 -1.5 4z"/>
  <path d="M585.3 421 c0 -3 0.3 -8.6 0.7 -12.5 l0.7 -7 0 6.5 c0.1 3.6 -0.3 9.2 -0.7 12.5 l-0.7 6 0 -5.5z"/>
  <path d="M585.3 393 c0 -3 0.2 -4.3 0.4 -2.7 0.2 1.5 0.2 3.9 0 5.5 -0.2 1.5 -0.4 0.2 -0.4 -2.8z"/>
  <path d="M609.6 382.8 c-1.1 -4.2 -0.7 -5.8 1.4 -5.8 1.7 0 2 0.7 2 4 0 4.5 -2.3 5.7 -3.4 1.8z"/>
  <path d="M732.4 365 c0 -7.4 0.1 -10.5 0.3 -6.7 0.2 3.7 0.2 9.7 0 13.5 -0.2 3.7 -0.3 0.6 -0.3 -6.8z"/>
  <path d="M585 373.4 c0 -2.4 1.9 -5.4 3.5 -5.4 0.8 0 1.5 -0.9 1.5 -2 0 -1.8 0.7 -2 7 -2 6.2 0 7 0.2 7 1.9 0 1.6 -0.8 1.8 -6.1 1.7 -5.8 -0.1 -6.2 0.1 -9.5 3.6 -2.1 2.4 -3.4 3.2 -3.4 2.2z"/>
  <path d="M639.7 283.2 c-4.9 -5 -5 -9.2 -0.6 -13.8 l3.1 -3.2 -4.1 -3.7 c-3.4 -3.1 -4.1 -4.4 -4.1 -7.4 0 -3 0.8 -4.4 3.8 -7.4 5.4 -5.2 9.2 -5.1 14.9 0.5 l4.3 4.2 3.8 -3.7 c5.3 -5.1 9.4 -5.1 14.5 0.1 4.9 5 5 9.2 0.5 13.9 l-3.2 3.3 3.2 3.3 c4.6 4.8 4.4 9.1 -0.6 14 -5.2 5 -9.4 5.1 -14.2 0.2 l-3.4 -3.5 -3.6 3.5 c-5.1 4.9 -9.3 4.8 -14.3 -0.3z"/>
  <path d="M768 277.6 c0 -1.9 0.4 -2.3 1.9 -1.9 1.1 0.3 2.7 1.4 3.7 2.4 1.7 1.8 1.6 1.9 -1.9 1.9 -3.2 0 -3.7 -0.3 -3.7 -2.4z"/>
  <path d="M729.5 259.3 c-1.4 -2.1 -2.5 -4.4 -2.5 -5.1 0 -0.7 -0.7 -2.7 -1.6 -4.3 -0.8 -1.7 -1.3 -3.3 -1 -3.6 0.5 -0.5 4.2 6.4 6.9 13 2 4.7 1.5 4.7 -1.8 0z"/>
  <path d="M708.5 225.3 c-4.6 -5.4 -5 -6 -1.6 -2.8 4 3.7 8.7 9.5 7.8 9.5 -0.2 0 -3 -3 -6.2 -6.7z"/>
  <path d="M650 202 c0 -2.1 1 -2.4 4.8 -1.4 3.6 1 2.7 3.4 -1.3 3.4 -2.8 0 -3.5 -0.4 -3.5 -2z"/>
  <path d="M190.3 704.3 c-1 -1 -1.4 -1.5 -0.8 -1.1 0.6 0.4 2.2 1.2 3.6 1.7 1.5 0.6 1.8 1 0.8 1 -0.9 0.1 -2.5 -0.7 -3.6 -1.6z"/>
  <path d="M469.4 703.7 c1.4 -2 1.3 -2.6 -0.4 -6.5 -1.1 -2.4 -2.9 -5.7 -4 -7.3 -1.3 -1.7 -1.6 -2.7 -0.8 -2.4 0.7 0.3 3.1 3.8 5.2 7.8 4.1 7.7 4.3 10.7 0.6 10.7 -1.9 0 -1.9 -0.2 -0.6 -2.3z"/>
  <path d="M589.3 716.4 c-6.1 -2.7 -6.8 -4.4 -1.8 -4.4 1.9 0 3.5 0.5 3.5 1 0 0.6 1.1 1 2.5 1 2 0 2.5 0.5 2.5 2.5 0 3 -0.1 3 -6.7 -0.1z"/>
  <path d="M557.6 709.4 l-1.7 -2.5 3.3 1.8 c1.8 1 4.7 2.1 6.3 2.4 2.5 0.5 2.3 0.7 -1.6 0.8 -4 0.1 -4.9 -0.3 -6.3 -2.5z"/>
  <path d="M543.6 704.4 c-0.5 -1.3 -0.3 -1.4 0.6 -0.6 0.7 0.5 2.2 1.2 3.3 1.5 1.6 0.4 1.4 0.5 -0.6 0.6 -1.7 0.1 -2.9 -0.5 -3.3 -1.5z"/>
  <path d="M817.8 705 c1.2 -0.5 2.5 -1.6 2.8 -2.4 0.8 -2.2 -1.4 -8.2 -4.3 -11.6 -1.4 -1.7 -2 -3 -1.5 -3 1 0 2.8 2.7 7.3 10.8 2.3 4.3 2.3 4.4 0.4 5.8 -1 0.8 -3 1.4 -4.4 1.3 -2.6 0 -2.6 0 -0.3 -0.9z"/>
  <path d="M536.2 691 c-1.6 -2.7 -1.5 -3 0.8 -3 1.5 0 2 0.7 2 2.5 0 3 -1.1 3.2 -2.8 0.5z"/>
  <path d="M648.5 668.9 c5.1 -4.5 6.5 -7.8 6.7 -15.6 0.1 -6 0.2 -6.2 0.6 -1.8 0.6 8.5 -0.6 13.5 -4.3 17.2 -1.8 1.8 -4 3.3 -4.9 3.3 -1.1 0 -0.5 -1 1.9 -3.1z"/>
  <path d="M556.3 658.8 c-2.5 -3.3 -2.3 -3.9 0.5 -1.8 2.9 2.2 3.5 2.2 7.4 1.1 4.1 -1.2 11.4 -4.8 24.1 -12 3.1 -1.8 5.7 -3.1 5.7 -2.8 0 0.7 -23 14.4 -26.3 15.6 -3.9 1.5 -10.2 1.4 -11.4 -0.1z"/>
  <path d="M653.1 643.4 c-2.3 -5.1 -10.4 -16.5 -13.5 -19.1 -1.7 -1.3 -2.3 -2.1 -1.3 -1.6 5.7 2.9 17.6 19.1 16.5 22.4 -0.2 0.6 -1 -0.1 -1.7 -1.7z"/>
 </g>
 <g fill="#111d2e">
  <path d="M372.2 808.2 c-1.2 -1.2 -2.2 -2.8 -2.2 -3.5 0 -0.7 2.5 -8.6 5.5 -17.7 3 -9 5.4 -16.4 5.2 -16.5 -1.8 -1.1 -14 -2.7 -20.2 -2.6 -4.4 0.1 -29.4 0.3 -55.6 0.4 l-47.6 0.2 -4.2 2.9 c-2.3 1.6 -4.9 4.1 -5.6 5.5 -0.8 1.4 -2.8 4.2 -4.6 6.1 -1.8 1.9 -4.2 5.8 -5.5 8.5 -3.6 7.7 -9.7 15.9 -12.4 16.6 -3.1 0.9 -40 0.9 -49.4 0 -12.2 -1.1 -11.8 -3.6 3.9 -22.5 6.3 -7.6 11.5 -14.2 11.5 -14.6 0 -2 -9 -3 -27 -3 -22.8 0 -27.4 -0.6 -27.8 -3.7 -0.4 -2.6 4.8 -13.1 7.8 -15.8 2.2 -2 3.8 -2 162.9 -2.3 99.4 -0.1 160.7 -0.6 160.9 -1.2 1.2 -3.6 5.5 -7.9 10.4 -10.3 4.6 -2.2 7.9 -3 17.5 -3.8 6.5 -0.6 12 -1.3 12.2 -1.4 0.2 -0.2 -4.6 -9.7 -10.7 -21.2 -33.7 -64.1 -32.1 -59.4 -26.7 -76.7 3.6 -11.3 3.8 -13.6 1 -13.6 -0.7 0 -1.5 -0.5 -1.7 -1 -0.4 -1.3 -18.5 -6 -24.6 -6.4 -2.4 -0.2 -4.7 -0.8 -5.1 -1.3 -0.3 -0.5 -2.2 -1.5 -4.1 -2.3 -5 -1.9 -28.7 -12.7 -34.1 -15.6 -2.6 -1.3 -6.1 -2.6 -7.8 -2.8 -1.7 -0.2 -3.9 -1 -4.8 -1.7 -1 -0.8 -2.4 -1.8 -3.1 -2.4 -0.7 -0.5 -1.8 -1.4 -2.5 -2 -3.9 -3.3 -9 -6.6 -14.7 -9.8 -6 -3.3 -6.7 -3.5 -9.5 -2.3 -1.6 0.7 -5.7 3.9 -8.9 7 -3.3 3.1 -6.3 5.6 -6.7 5.6 -0.4 0 -1.1 0.9 -1.4 2 -0.3 1.1 -1.2 2 -1.8 2 -1.3 0 -14.6 10.8 -21.2 17.1 -2.3 2.1 -4.5 3.9 -5 3.9 -0.6 0 -2.7 1.6 -4.9 3.5 -4.8 4.3 -18.8 11.1 -28 13.6 -11.1 2.9 -31.3 4.3 -44.3 3 -16.1 -1.6 -26.4 -5.1 -35.6 -12.2 -4 -3 -4.6 -3.9 -4.9 -7.8 l-0.3 -4.4 8.5 -7.3 c4.7 -4 16.8 -14.4 27 -23.1 10.2 -8.7 26.2 -22.1 35.5 -29.7 9.4 -7.7 21.5 -17.8 27 -22.6 5.5 -4.7 15.4 -13 21.9 -18.5 17.3 -14.5 37.7 -31.6 50.7 -42.6 6.3 -5.3 13.3 -11.2 15.6 -13 2.3 -1.9 9.7 -8.1 16.4 -13.9 24.8 -21.3 41.9 -35.7 52.5 -44.5 6 -4.9 26.5 -22 45.5 -38 19 -15.9 40.7 -34.1 48.2 -40.3 12.8 -10.6 13.8 -11.6 15.2 -16.4 0.8 -2.9 1.5 -8 1.5 -11.5 0 -12.3 5.4 -29.3 13.3 -41.5 5.4 -8.5 17.1 -20.3 25.6 -25.8 14.8 -9.8 29.8 -14.2 48.6 -14.2 23.3 0 41.3 6.9 57.7 22 3.2 3 5.6 5.8 5.3 6.2 -0.3 0.4 0.2 1.3 1 2 2.3 1.9 8.6 12.6 9.6 16.3 1.4 5.2 6.9 14.7 8.5 14.7 0.8 0 1.4 0.7 1.4 1.5 0 2 2.3 2.9 14.8 6 5.7 1.4 11.1 3 12 3.5 0.9 0.5 3.5 1.2 5.6 1.5 2.3 0.4 5 1.8 6.8 3.5 2.5 2.5 2.8 3.5 2.8 9.2 0 5.4 -0.4 6.8 -2.2 8.5 -2.3 2.1 -10.8 5.3 -13.9 5.3 -1.5 0 -16.3 5.9 -23.1 9.2 -1.8 0.8 -2.9 2.3 -3.3 4.5 -0.3 1.7 -1.1 3.3 -1.8 3.6 -1.3 0.4 -1.4 12.6 -0.9 58.2 0.4 25.8 -0.7 39.2 -3.8 49.5 -0.6 1.9 -1.1 6.6 -1.1 10.4 -0.1 4.2 -0.6 7.4 -1.3 8.2 -0.9 0.8 -1.2 3 -0.8 6.3 0.6 6.5 -0.5 12.1 -2.3 12.1 -0.8 0 -1.5 0.6 -1.5 1.3 0 0.7 -1.6 5.1 -3.6 9.7 -1.9 4.7 -4.2 10.1 -4.9 12.1 -1.3 3.5 -6.9 13.9 -14.7 26.9 -2.1 3.6 -7 10.3 -10.8 15 -3.9 4.7 -9.3 11.5 -12 15.1 -7.3 9.6 -32.3 31.1 -48.2 41.5 -7.9 5.1 -22.3 12.5 -28.8 14.7 -2.5 0.9 -6.3 2.3 -8.5 3.2 -13.8 5.9 -29.3 10.8 -37.7 12 -2.6 0.3 -5.5 1.3 -6.3 2.1 -1 1 -3.2 1.5 -6.3 1.4 -14.4 -0.5 -15.9 -0.2 -20.3 3.8 -2.3 2 -5.9 6 -8.1 8.7 -2.1 2.8 -5.9 7.5 -8.4 10.5 -2.5 3 -4.9 6.2 -5.4 7.1 -1.1 2 4.5 14.1 11.9 25.7 2.8 4.2 7.6 13.1 10.7 19.7 12 25.4 15.4 32.1 17.3 34.3 1.8 2 3.4 2.4 12.6 3.2 7.2 0.5 11.5 0.5 13.5 -0.3 2.1 -0.8 4.2 -0.8 7.8 0.1 2.7 0.6 5.8 0.8 7 0.5 3.5 -0.9 14.7 5.4 18.5 10.4 l3.2 4.2 17.5 0.2 c9.6 0.1 70 0.2 134.1 0.3 97.6 0.1 116.9 0.3 118.3 1.5 2.4 2 5.6 9.8 5.6 13.6 0 5.8 -1 6 -25.4 6 -21.4 0.1 -26.6 0.6 -26.6 2.6 0 0.5 3.3 4.9 7.3 9.8 14.6 17.9 14.7 18 14.7 22.6 0 3.6 -0.4 4.4 -2.2 5 -1.3 0.3 -14 0.9 -28.3 1.1 -20.2 0.4 -26.6 0.2 -28.5 -0.8 -1.4 -0.7 -4.8 -4.9 -7.7 -9.3 -18.1 -28.1 -17.6 -27.5 -21.3 -28.4 -7.5 -2 -95.3 -2.9 -110.5 -1.2 -4.9 0.5 -10.1 1 -11.4 1 -2.3 0.1 -2.3 0.3 -1.7 5.2 0.4 2.7 1.3 6.4 2 8.2 2.9 7 5.6 16.4 5.6 19.3 0 5.8 -0.5 5.9 -31.7 5.9 -28.4 0 -28.5 0 -30.3 -2.3 -1 -1.2 -2.2 -4.8 -2.6 -8 -1.3 -10.9 -4.7 -25.9 -6.2 -27.4 -2.2 -2.2 -23.5 -2.9 -72.8 -2.6 l-51.6 0.3 -1.8 2.3 c-1 1.2 -2.4 4.8 -3.1 8 -0.7 3.1 -1.6 6.5 -2.1 7.5 -0.5 1.1 -0.5 1.7 0.2 1.7 0.5 0 1 2 1 4.5 0 3.1 -0.4 4.5 -1.4 4.5 -0.8 0 -1.6 1.6 -1.9 4.2 -0.3 2.3 -1.3 4.8 -2.2 5.4 -2.4 1.7 -22.5 2.8 -41.2 2.1 -11.5 -0.4 -16.3 -0.2 -16.6 0.6 -0.2 0.6 -1.2 0.2 -2.5 -1.1z m93.2 -241.3 c5 -0.6 10.6 -1.8 12.4 -2.6 1.9 -0.8 4.5 -1.2 5.8 -0.9 1.3 0.4 2.4 0.2 2.4 -0.2 0 -0.5 4.4 -2.2 9.8 -3.8 19.9 -5.7 37.5 -14.2 50.7 -24.3 3.3 -2.5 11.3 -9.7 17.7 -16 18.9 -18.3 31.5 -38.9 40.5 -66 2.5 -7.5 4.8 -14.2 5.3 -15.1 0.4 -0.8 1.3 -8.7 1.9 -17.5 1.3 -18.6 0.3 -38.2 -2.3 -43 -0.9 -1.6 -1.9 -4.5 -2.2 -6.3 -0.8 -4.2 -4.3 -6.5 -9.8 -6.4 -4.4 0 -9.9 2.2 -11.2 4.4 -1.7 2.7 -2.1 30.5 -0.4 32.2 1.2 1.2 1.4 6.6 0.2 6.6 -0.5 0 -1.2 4.5 -1.6 10.1 -1.1 17 -5.6 34 -11.1 42 -1.4 1.9 -2.5 3.8 -2.5 4.3 0 1.5 -10.7 17.4 -17.6 26.2 -4 4.9 -9.9 11.4 -13.2 14.2 -5.9 5.1 -20.5 15.2 -22 15.2 -0.4 0 -3 1.5 -5.8 3.4 -2.8 1.9 -7.6 4.3 -10.5 5.2 -3 1 -6.3 2.3 -7.4 3 -1.1 0.6 -5.8 2.1 -10.5 3.2 -27.2 6.4 -63.5 5.2 -84.2 -2.8 -2.9 -1.1 -8.8 -2.8 -13 -3.6 l-7.7 -1.6 -3.5 2.8 c-4.6 3.7 -7.3 9.6 -5.8 12.8 3.4 7.6 9 11 27.5 16.7 5.9 1.9 10.7 3.7 10.7 4.1 0 0.5 1.1 0.6 2.4 0.2 1.4 -0.3 3.9 0.1 5.8 1 1.8 0.8 5.6 1.9 8.3 2.5 7.1 1.3 30.2 1.3 40.9 0z m186.6 -287.4 c2.4 -2.5 4.9 -4.5 5.4 -4.5 0.6 0 3.2 2.1 5.8 4.7 l4.8 4.7 4.3 -4.2 4.2 -4.3 -5.2 -4.8 -5.1 -4.8 5.1 -5.2 5.2 -5.1 -4.3 -4.2 -4.2 -4.3 -5.4 5.4 -5.5 5.4 -6.1 -5.9 -6.1 -5.8 -4.2 4.3 -4.2 4.2 6 5.5 6 5.4 -5 5 -4.9 5 3.9 4 c2.1 2.2 4.2 4 4.5 4 0.3 0 2.6 -2 5 -4.5z"/>
  <path d="M235.5 731.1 c-3.8 -0.6 -4 -0.8 -4.3 -4.7 -0.3 -3.6 0.3 -4.8 5.8 -11.6 3.3 -4.2 6 -7.8 6 -8.1 0 -1.1 -15.9 -2.5 -29.9 -2.6 -18.2 0 -20.1 -0.7 -20.1 -7.2 0 -6.7 2.8 -8.6 14.1 -9.4 10.5 -0.7 14.9 -0.5 14.9 0.8 0 0.4 19.9 0.5 44.3 0 50.8 -0.9 179.3 -0.7 188.2 0.3 3.3 0.4 7.4 1.6 9.3 2.8 3 2 3.2 2.4 3 7.1 -0.3 4.5 -0.5 5 -2.8 5.3 -8.1 0.9 -10.5 3 -12.6 11.1 -2.3 9.2 -6.2 15.3 -10.4 16.4 -4.5 1.2 -38.3 0.2 -40.9 -1.3 -2.9 -1.5 -2.7 -6.8 0.3 -15.8 1.8 -5.3 2.2 -7.4 1.3 -7.9 -0.7 -0.4 -6.9 -0.6 -13.9 -0.5 -8.5 0.2 -12.8 0 -12.8 -0.7 0 -1.3 -26.9 -1.5 -57.3 -0.4 l-19.7 0.6 -5.3 5.2 c-3 2.8 -6.8 7.6 -8.7 10.6 -1.8 3 -4.6 6.5 -6.3 7.9 -3 2.4 -3.5 2.5 -20.7 2.6 -9.6 0.1 -19.3 -0.1 -21.5 -0.5z"/>
  <path d="M734.5 730.6 c-3.1 -1.3 -8.2 -7.4 -15.1 -18.1 -3 -4.5 -4.7 -6.2 -7.4 -7 -5.1 -1.5 -99.8 -1.4 -101.9 0.1 -1.1 0.9 -1.5 3 -1.6 8 l0 6.9 -4.7 0.5 c-3.9 0.5 -5.3 0.2 -8.5 -2 -8.4 -5.6 -16.3 -8 -31.3 -9.6 -3.6 -0.3 -7.2 -1.3 -8.1 -2.1 -1 -0.8 -4.1 -2.1 -7 -2.8 -6.8 -1.8 -8.1 -3.3 -8.7 -9.9 l-0.4 -5.4 4.8 -0.8 c4.3 -0.7 120.2 -1.1 206.4 -0.6 16.8 0.1 33.7 0.1 37.5 0.1 11.2 0 22.9 1.2 24.8 2.6 1.1 0.8 2 3.2 2.4 6.2 0.4 4.1 0.2 5.1 -1.2 5.6 -0.9 0.4 -10.9 1 -22.1 1.4 -23.4 0.7 -24.6 1.1 -21.9 6.4 1 1.9 3.1 5 4.6 7 2.2 2.9 2.9 4.7 2.9 8.3 0 5.6 1.1 5.3 -22.5 6 -13.8 0.4 -18.7 0.2 -21 -0.8z"/>
  <path d="M635.7 668.3 c-2.3 -0.6 -3.7 -4.2 -3.7 -9.4 0 -4.9 -1.8 -8.4 -6.2 -12.4 -5.3 -4.9 -9.2 -7.3 -13.8 -8.5 -6.7 -1.8 -11.8 -0.5 -20.6 5.2 -13.3 8.7 -20.9 12 -29.1 12.6 -7.3 0.5 -7.3 0.5 -7.3 -2.1 0 -1.4 -0.5 -2.7 -1 -2.9 -1.5 -0.5 2.8 -8.1 7.3 -12.7 4.6 -4.9 12.1 -9.3 20.7 -12.1 3.6 -1.1 7.9 -2.7 9.5 -3.5 1.7 -0.7 7 -2.7 11.9 -4.4 10.5 -3.7 16.4 -3.7 26.1 0 5.8 2.3 15.5 10.3 15.5 12.8 0 0.6 0.4 1.1 0.8 1.1 0.5 0 1.7 1.8 2.7 3.9 1.3 3 1.7 6.9 1.9 16.4 0.1 15.1 -0.7 16.8 -8.3 16.6 -2.5 -0.1 -5.4 -0.3 -6.4 -0.6z"/>
 </g>
 <g fill="#0b1819">
  <path d="M167 808.1 c-2.1 -4.1 -1.3 -5.8 8.2 -17.2 2 -2.4 6.6 -8 10.2 -12.4 l6.7 -8 -28 -0.3 c-33.7 -0.3 -32.4 0.3 -26.2 -11.9 6.6 -13.3 -6.4 -11.8 105 -12 53.1 -0.2 125.5 -0.3 160.8 -0.3 63.8 0 64.2 0 64.8 -2.1 1.1 -3.3 6.1 -7.8 11.3 -10 3 -1.4 8.8 -2.5 16.2 -3.2 6.3 -0.6 11.7 -1.1 11.8 -1.3 0.4 -0.3 -12.6 -25.5 -17.3 -33.9 -7.4 -12.9 -23.5 -46.3 -23.5 -48.6 0 -1.5 1.6 -8.1 3.5 -14.8 1.9 -6.6 3.5 -12.4 3.5 -12.9 0 -0.6 -1.5 -1.3 -3.4 -1.6 -1.9 -0.4 -10.8 -2.7 -19.7 -5.1 -27.1 -7.4 -46.2 -15.9 -72 -32.3 -8.1 -5 -15.3 -9.2 -16 -9.2 -2 0.1 -6.3 3.5 -26.4 21 -9.8 8.5 -20.6 17.6 -24.1 20.1 -17.2 12.6 -39.1 19.9 -59.7 19.9 -21.5 0 -44.3 -7.6 -56.8 -18.9 l-4.4 -4.1 6.1 -5.7 c7.9 -7.5 47 -40.9 69.4 -59.3 9.6 -7.9 20.9 -17.3 25 -20.8 4.1 -3.6 8.6 -7.4 10 -8.6 1.4 -1.2 6.6 -5.5 11.5 -9.6 5 -4.1 12.2 -10.1 16.1 -13.5 3.9 -3.3 8 -6.7 9 -7.5 6.2 -4.9 13.5 -11.1 17.5 -14.8 2.5 -2.3 6.2 -5.5 8.1 -7 4.3 -3.3 26.6 -22.1 28.8 -24.2 0.8 -0.8 6.4 -5.5 12.4 -10.5 6 -4.9 13.3 -11 16.1 -13.5 10.5 -9.2 17.2 -14.9 23 -19.6 6.5 -5.2 17.5 -14.3 21.5 -17.8 1.4 -1.2 7.7 -6.4 14 -11.6 6.3 -5.2 11.7 -9.7 12 -10 0.3 -0.3 5 -4.4 10.5 -9 5.5 -4.6 13 -10.9 16.6 -14 3.6 -3 9.4 -7.7 12.8 -10.5 7.5 -6 8.4 -6.8 15.2 -12.5 12.9 -10.9 12.6 -10.6 13.8 -17.4 0.6 -3.4 1.1 -8.2 1.1 -10.5 0 -9.8 6.6 -30 13.3 -40.4 3.2 -4.9 15.3 -18 20.7 -22.3 7.9 -6.2 20 -12.3 29.6 -14.7 24.1 -6.1 51 -2.5 69.3 9.3 8.4 5.5 19.3 16.7 25.8 26.6 5.5 8.5 12.3 22.1 12.3 24.7 0 0.9 4 2.4 12.8 4.6 23.8 6.1 29.4 8.6 34.2 15.5 4.2 6.2 4.7 9 1.9 11 -1.3 0.9 -11.5 4.5 -22.9 8.2 -26.5 8.5 -25.7 8.1 -26.5 11.1 -0.3 1.4 -0.3 22.2 0.1 46.2 0.5 37.9 0.4 45.3 -1.1 56.5 -2 15.5 -8.8 43.3 -14 57.1 -24.2 64.7 -82.5 118.4 -149.9 138 -13 3.7 -26.7 6.3 -37.9 7.1 l-9.8 0.7 -5.7 7.1 c-3 3.9 -8.4 10.1 -11.9 13.9 -3.5 3.7 -6.3 7.4 -6.3 8.3 0 0.9 7.8 16.9 17.4 35.7 25 48.9 22.5 44.7 26.6 44.8 1.9 0 10.3 0.2 18.5 0.3 8.3 0.2 17.1 0.6 19.7 1.1 6.6 1 14.8 6.2 17.3 10.8 l2 3.7 17.5 0.1 c9.6 0.1 70 0.2 134.2 0.3 l116.6 0.1 2.4 2.2 c3.2 3 10.3 17.7 9.5 19.7 -0.6 1.4 -3.8 1.6 -28.7 1.6 -25.6 0 -30.4 0.4 -27.1 2.4 1 0.7 19.4 23 22.9 27.9 2.6 3.7 2.8 6 0.6 8.1 -1.3 1.4 -5.5 1.6 -30.4 1.6 l-28.8 0 -3 -2.5 c-1.7 -1.4 -5.9 -7.2 -9.3 -12.8 -7.5 -12.2 -14.8 -22.9 -16.3 -23.9 -0.6 -0.4 -29.4 -0.8 -64 -0.8 -49.8 0 -62.7 0.3 -62.3 1.3 1.7 4.6 10.7 32.8 10.7 33.6 0 0.6 -0.9 2 -2 3.1 -1.9 1.9 -3.3 2 -30.4 2 -15.6 0 -29.2 -0.3 -30.1 -0.6 -2 -0.8 -4.1 -4.8 -4.9 -9.9 -2.1 -12.3 -5 -26.2 -5.8 -27.7 -0.8 -1.7 -4.8 -1.8 -62.8 -1.8 -58 0 -62 0.1 -62.8 1.8 -0.5 0.9 -1.9 6.9 -3.1 13.2 -1.2 6.3 -2.7 13.9 -3.2 16.7 -1.7 8.5 -1 8.3 -33.9 8.3 -15.7 0 -28.9 -0.4 -29.5 -0.8 -3.9 -2.8 -3.8 -3.6 1.5 -20.3 2.8 -8.9 5.4 -16.8 5.7 -17.5 0.4 -1.2 -9.8 -1.4 -63 -1.4 l-63.5 0 -6.9 10.8 c-3.8 5.9 -8.9 13.7 -11.2 17.5 -2.4 3.7 -5.7 7.9 -7.3 9.2 l-3 2.5 -28.8 0 c-27.6 0 -29 -0.1 -30 -1.9z m55 -3.1 c2.7 -0.7 8.7 -8.7 12.4 -16.5 1.3 -2.7 3.7 -6.6 5.5 -8.5 1.8 -1.9 3.8 -4.7 4.6 -6.1 0.7 -1.4 3.3 -3.9 5.6 -5.5 l4.2 -2.9 48.1 -0.4 c71.2 -0.5 70.7 -0.5 75 1 7.1 2.5 7.1 1.4 -0.6 26.3 -4.2 13.7 -6 12.9 25.7 12.8 28.6 0 28.2 0.1 29.2 -7 0.3 -2.6 1.1 -4.2 1.9 -4.2 0.8 0 1.4 -0.7 1.4 -1.5 0 -0.8 -0.5 -1.5 -1.1 -1.5 -2.2 0 2 -19.4 4.9 -23 2.2 -2.8 2.4 -2.8 61.7 -2.9 48.4 -0.2 64.3 0.3 67.8 2.1 4.1 2.1 6.9 11.3 9.2 29.9 1 8.4 1 8.4 30.1 8.4 21.7 0 25.6 -0.2 26.9 -1.6 1.7 -1.6 1.9 -0.7 -3.5 -15.9 -1.4 -4.2 -3.9 -14.8 -4 -17.2 -0.1 -4.9 13.7 -6.2 61.5 -5.9 20.9 0.2 39.8 0.4 42 0.6 2.2 0.1 8.9 0.2 15 0.3 l11 0.2 6.2 6.5 c5.3 5.6 15.3 21 15.3 23.6 0 0.5 1.7 2.7 3.8 4.8 2.6 2.7 5.1 4.2 7.7 4.7 4.4 0.8 44.8 -0.2 48.3 -1.2 3.2 -0.9 2.8 -2.7 -1.8 -8.1 -4.8 -5.6 -16.6 -20.8 -18.7 -24 -1.6 -2.5 -0.6 -5.5 2.4 -6.8 1 -0.5 12.1 -0.9 24.6 -1 26.8 -0.2 27 -0.3 23.7 -7.7 -1.1 -2.5 -2.7 -5.2 -3.6 -5.9 -2.3 -1.9 -40 -2.4 -165.4 -2.3 -78.5 0.1 -101.2 -0.1 -103.6 -1.1 -1.7 -0.7 -4 -2.6 -5.2 -4.2 -1.1 -1.6 -4.5 -4.1 -7.6 -5.6 -5.2 -2.6 -6.4 -2.7 -24 -3.2 -20.8 -0.5 -23.1 -0.9 -26.4 -3.9 -2.1 -1.9 -4.9 -6.2 -5.4 -8.3 -0.4 -1.8 -22.7 -45.2 -25.2 -49.2 -5 -7.8 -10.6 -20.4 -10.6 -23.7 0 -2.4 1.4 -5 5.5 -10 3 -3.8 7.2 -9.1 9.3 -11.9 6.5 -8.4 11.7 -12.5 16 -12.6 2 -0.1 4.6 -0.3 5.7 -0.5 5.1 -1 8.5 -1.1 8.5 -0.3 0 1.4 3 1.1 4.6 -0.5 0.8 -0.8 3.6 -1.8 6.2 -2.1 8.4 -1.2 23.9 -6.1 37.7 -12 2.2 -0.9 6 -2.3 8.5 -3.2 6.5 -2.2 20.9 -9.6 28.8 -14.7 15.9 -10.4 40.9 -31.9 48.2 -41.5 2.7 -3.6 8.1 -10.4 12 -15.1 3.8 -4.7 8.7 -11.4 10.8 -15 7.8 -13 13.4 -23.4 14.7 -26.9 0.7 -2 3 -7.4 4.9 -12.1 2 -4.6 3.6 -9 3.6 -9.7 0 -0.7 0.7 -1.3 1.6 -1.3 1 0 1.4 -0.6 1 -1.5 -0.3 -0.8 0 -1.5 0.7 -1.5 0.8 0 0.6 -0.4 -0.3 -1 -1 -0.6 -1.1 -1 -0.3 -1 0.9 0 1.1 -1.5 0.7 -5.8 -0.5 -4.6 -0.3 -6.2 1 -7.4 1 -1.1 1.2 -1.8 0.5 -2 -1.2 -0.4 -0.9 -1.9 2.6 -18.8 3.4 -15.8 4.4 -37.4 3 -62.5 -0.7 -12.3 -0.7 -30.9 0.1 -37.3 0.5 -4.8 1 -6.2 2.3 -6.2 1.3 0 1.3 -0.2 0.2 -0.9 -2.7 -1.7 -0.1 -5.1 6.2 -8 9.5 -4.4 18.9 -8.1 20.7 -8.1 3.1 0 11.5 -3.3 13.8 -5.3 5.2 -4.8 0.7 -13.9 -7.6 -15.2 -2 -0.4 -6.4 -1.9 -9.7 -3.5 -3.3 -1.6 -9.3 -3.4 -13.2 -4 -4.2 -0.7 -8.3 -2 -9.7 -3.1 -2.8 -2.2 -8.1 -11.5 -9.5 -16.6 -1.2 -4.3 -7.1 -13.8 -11.8 -19 -2.1 -2.2 -4.5 -5.2 -5.4 -6.5 -3.1 -4.4 -24.8 -17.8 -29 -17.8 -1 0 -4.4 -0.7 -7.7 -1.5 -4.5 -1.2 -9.3 -1.4 -18.9 -1.1 -18 0.7 -28.4 2.8 -35.5 7.1 -3.1 1.9 -6.3 3.5 -7.1 3.5 -1.6 0 -16.1 12.4 -19.4 16.6 -8.6 11.1 -16.7 25.6 -18.4 33.1 -0.6 2.6 -1.4 10.4 -1.8 17.3 -0.6 11.7 -0.9 12.8 -3.6 16.5 -4 5.5 -18.2 19.5 -19.7 19.5 -0.7 0 -3.6 2.2 -6.4 4.8 -2.8 2.6 -9.5 8.3 -14.9 12.7 -5.4 4.4 -11.9 9.7 -14.4 11.8 -2.5 2 -5.1 4.2 -5.8 4.7 -0.6 0.5 -1.5 1.5 -2 2.2 -0.4 0.7 -3 3.1 -5.8 5.3 -2.7 2.2 -5.1 4.3 -5.3 4.7 -0.2 0.3 -2.9 2.6 -6 5 -7.7 5.8 -16.6 12.9 -17.2 13.8 -0.3 0.3 -3.8 3.2 -7.7 6.3 -4 3.2 -8.3 6.8 -9.5 8 -1.3 1.2 -4.5 4 -7.2 6.2 -2.8 2.2 -9.1 7.6 -14 12 -5 4.4 -11.3 9.8 -14.1 12 -6 4.8 -14.2 11.8 -21 18.1 -2.7 2.6 -9.7 8.2 -15.5 12.6 -5.8 4.4 -11.7 9.1 -13.2 10.6 -6.3 6.3 -20.1 18.2 -21.2 18.2 -0.6 0 -4.2 2.9 -7.5 6 -0.9 0.8 -4.1 3.5 -7.1 6 -3 2.5 -7.1 6.2 -9.1 8.3 -2 2 -4.1 3.7 -4.6 3.7 -0.5 0 -3.6 2.5 -6.8 5.5 -3.3 3 -6.3 5.5 -6.7 5.5 -0.4 0 -2.4 1.5 -4.5 3.4 -2.1 1.9 -8.5 7.4 -14.3 12.1 -13.7 11.3 -18 14.9 -26.8 22.6 -4 3.5 -9.4 8.1 -12 10.2 -6.2 5 -13.4 11.2 -19.8 16.7 -2.8 2.5 -8.8 7.7 -13.2 11.5 -5.1 4.4 -8.1 7.7 -8.1 9 0 3.8 12.7 11.6 24.3 15 14.1 4.1 36.3 3.8 55 -0.6 7.2 -1.7 22.8 -9.4 27.3 -13.4 2.1 -1.9 4.2 -3.5 4.8 -3.5 0.5 0 2.7 -1.8 5 -3.9 6.6 -6.3 19.9 -17.1 21.2 -17.1 0.6 0 1.5 -0.9 1.8 -2 0.3 -1.1 1 -2 1.4 -2 0.4 0 3.6 -2.7 7.1 -6 3.8 -3.6 8 -6.5 10.7 -7.4 4.4 -1.5 4.4 -1.5 12 2.5 6.8 3.6 12.8 7.5 16 10.5 0.7 0.7 3.4 2.2 6 3.4 2.6 1.2 7.5 3.5 10.8 5 35.9 16.7 36 16.7 57.5 22 7.4 1.8 14.1 3.8 14.9 4.4 1.8 1.4 1 8.6 -2.4 20.1 -3.9 13.1 -4.2 12.1 11.7 44 8.2 16.4 21.3 41.3 22.5 42.7 0.8 0.9 1.7 3.4 2 5.6 0.7 5.3 -0.9 6.1 -14 7.3 -12.2 1.2 -17.5 3.3 -24.2 9.9 l-5 4.9 -142.5 -0.2 c-132.8 -0.2 -173 0.2 -177.7 1.7 -2.5 0.8 -8.1 11.2 -6.8 12.5 1.4 1.4 17.5 2.7 25 2.1 3.3 -0.3 10.7 -0.2 16.4 0.1 8.5 0.5 10.6 0.9 11.7 2.4 1.8 2.5 1.8 2.7 -1.1 6.6 -1.4 1.9 -4.2 6 -6.4 9.1 -2.1 3.2 -6.1 8.1 -8.7 10.8 -2.7 2.8 -5.2 5.8 -5.7 6.6 -1.5 2.7 1.1 4.3 7.6 4.6 11 0.7 41.1 0.5 43.7 -0.2z"/>
  <path d="M432.5 570.8 c-12.4 -0.8 -26.4 -3.7 -37.5 -7.8 -4.7 -1.8 -9.6 -3.5 -11 -4 -8.3 -2.5 -14.8 -8 -17.7 -14.8 -1 -2.5 -1.1 -4.2 -0.3 -7 2.4 -8.3 7.4 -13 14.1 -13.2 5.2 -0.1 8.6 0.4 9.5 1.3 0.4 0.4 1.7 0.7 2.9 0.7 1.3 0 5.3 1.1 8.9 2.5 12.3 4.6 24 6.7 39.6 7 19.4 0.5 43.9 -2.9 50.5 -6.9 1.1 -0.7 4.4 -2 7.4 -3 2.9 -0.9 7.7 -3.3 10.5 -5.2 2.8 -1.9 5.4 -3.4 5.8 -3.4 1.5 0 16.1 -10.1 22 -15.2 3.3 -2.8 9.2 -9.3 13.2 -14.2 6.9 -8.8 17.6 -24.7 17.6 -26.2 0 -0.5 1.1 -2.4 2.5 -4.3 5.5 -8 9.8 -24.4 11.1 -41.6 0.8 -11.9 0.7 -16.9 -0.7 -29.6 -0.8 -8.4 -0.7 -10.3 0.8 -15 2.4 -7.2 6 -9.3 15.8 -9.4 8.5 0 11.9 1.8 12.9 6.7 0.3 1.8 1.3 4.7 2.2 6.3 4 7.4 3.8 60 -0.2 67.7 -0.8 1.5 -1.3 2.9 -1.2 3.1 0.3 0.2 -3.7 10.5 -6.3 16.2 -0.5 1.1 -2 5.1 -3.4 8.9 -3.1 8.3 -5.6 12.9 -12 22.5 -2.8 4 -5.4 8.1 -6 9 -6.3 10 -14.2 18.3 -30.4 31.8 -14.1 11.7 -30 20.9 -45.6 26.3 -4.4 1.6 -10.5 3.7 -13.5 4.8 -13 4.7 -40.6 7.4 -61.5 6z m33.6 -5.3 c29.7 -3.4 61.6 -15.3 79.6 -29.6 29.1 -23.2 47.5 -48.4 57.8 -79.2 7.9 -23.7 10.4 -56.6 5.8 -77 -1.9 -8.8 -4.4 -11.7 -10.6 -12.4 -5.4 -0.6 -8.1 0.7 -12.3 6.2 -2.6 3.5 -2.6 3.6 -1.5 11.3 3.6 25.3 1.7 45.1 -6.3 68.1 -7.9 22.7 -24.5 45.2 -44.3 60 -18.1 13.6 -42.4 24.2 -63.3 27.6 -12.5 2 -36.8 2 -48.5 -0.1 -4.9 -0.8 -15.7 -3.7 -23.9 -6.5 -8.2 -2.7 -15.8 -4.9 -16.8 -4.9 -8 0 -13.8 11.3 -9.2 17.8 3.3 4.7 24.8 13.5 40.4 16.6 19.3 3.7 34.2 4.3 53.1 2.1z"/>
  <path d="M667.6 288.1 c-0.3 -0.5 -1.8 -1.2 -3.3 -1.6 -3.1 -0.8 -8.3 -4.2 -8.3 -5.6 0 -1.5 3.3 -1 7.5 1.1 2.2 1.1 5 2 6.3 2 1.3 0 3.2 0.5 4.4 1.1 2.8 1.5 8.3 0.3 11.4 -2.6 2.8 -2.6 4.4 -3.2 4.4 -1.6 0 1.2 -5.8 5.4 -9.4 6.8 -3.7 1.4 -12.3 1.7 -13 0.4z"/>
  <path d="M224.6 733.2 c-0.7 -1.2 2.5 -6.2 10.9 -16.7 4.1 -5.1 7.5 -9.5 7.5 -9.9 0 -0.3 -11.4 -0.6 -25.4 -0.6 -22.8 0 -25.6 -0.2 -27.6 -1.8 l-2.1 -1.7 3.1 -6.2 c1.8 -3.4 3.8 -6.7 4.6 -7.4 1 -0.8 34.8 -1.1 134.6 -1 73.3 0 133.8 0.1 134.3 0.1 1.7 0 8.9 14.4 8.2 16.3 -0.5 1.4 -2.1 1.7 -9 1.7 l-8.4 0 -2.3 10.8 c-1.2 5.9 -2.5 12.1 -2.9 13.7 l-0.7 3 -26.7 0.3 c-21.3 0.2 -26.9 0 -27.3 -1.1 -0.2 -0.7 1.3 -6.8 3.5 -13.5 2.6 -8.3 3.5 -12.4 2.8 -12.9 -1.2 -0.8 -103.7 -0.4 -104.9 0.3 -0.4 0.3 -3.7 5 -7.4 10.5 -3.6 5.5 -7.9 11.6 -9.6 13.5 l-3 3.4 -25.8 0 c-14.3 0 -26.1 -0.4 -26.4 -0.8z m50.1 -7.2 c1.7 -1.4 4.5 -4.8 6.2 -7.7 3.1 -5.1 10.3 -13.3 11.7 -13.3 0.4 0 1.3 -0.8 2 -1.7 1.1 -1.7 4.8 -1.8 49.6 -2 26.6 -0.1 50.3 0.2 52.8 0.5 6.5 1 7.8 3.8 6.2 12.9 -0.6 3.7 -1.5 7.8 -1.8 9 -0.4 1.5 0 2.4 1.5 3.2 2.6 1.4 31.6 2.5 35.6 1.4 3.7 -1.2 7.7 -7.8 9.9 -16.4 2.1 -8.1 4.5 -10.2 12.6 -11.1 4.1 -0.5 3.7 -3.9 -0.7 -6.8 l-3.8 -2.5 -128 0 -128 0 -2.2 2.2 c-2.9 2.8 -2.9 3.9 0.1 5.8 1.9 1.3 5.6 1.6 18.7 1.6 15.4 0 24.1 0.8 25.6 2.3 0.4 0.4 0.7 2.2 0.7 4 0 2.4 -1.3 5.1 -4.7 9.7 -8.1 10.9 -6.6 11.8 18.3 11.6 14 -0.2 14.7 -0.3 17.7 -2.7z"/>
  <path d="M605.4 727.2 c-10.4 -10.4 -22.6 -15.2 -38.5 -15.2 -7.2 0 -7.6 -0.1 -9.7 -3 -2 -2.7 -2.8 -3 -7.6 -3 l-5.2 0 -4.8 -9 -4.7 -9 44.8 0 c24.6 0 87.7 0 140.2 -0.1 l95.4 -0.1 1.6 2.1 c0.9 1.1 2.9 4.6 4.5 7.7 4.5 8.5 4.7 8.4 -26.6 8.4 -14.2 0 -25.8 0.3 -25.8 0.8 0 0.4 4.3 6 9.6 12.5 5.2 6.6 9.3 12.4 9.1 13 -0.3 0.9 -7.8 1.2 -27.3 1.2 l-26.9 0 -9 -13.5 -9 -13.5 -53.3 -0.3 c-29.2 -0.1 -53.2 0 -53.2 0.3 0 0.3 1.6 5.5 3.6 11.6 5.6 17.5 3.7 19.9 -7.2 9.1z m167.4 0.3 c3 -0.7 2.8 -3 -0.6 -7.4 -4.4 -5.6 -7.2 -11 -7.2 -13.6 0 -4.4 3 -5.2 22.5 -5.9 15.9 -0.6 22.6 -1 24.6 -1.5 0.3 0 0.4 -1.1 0.2 -2.4 -1 -5.3 4.9 -5 -132.8 -5.4 -70.4 -0.2 -130 -0.1 -132.3 0.2 -4.1 0.6 -4.3 0.8 -3.7 3.3 0.9 3.9 2.5 5.1 8.3 6.6 2.8 0.8 5.8 2.1 6.6 2.9 0.9 0.8 4.5 1.8 8.3 2.1 12.7 1.3 18.8 2.9 28 7.3 5.1 2.5 9.7 4.2 10.3 3.8 0.7 -0.4 0.8 -2.9 0.4 -7 -1 -9.9 -4.6 -9.2 54.6 -9.4 42.5 -0.2 50.8 0 52.5 1.2 1 0.8 2.4 1.3 3 1.1 0.6 -0.3 2.8 1.9 5 4.8 9.3 12.5 14.2 18.1 16.7 19.2 2.6 1.1 30.5 1.2 35.6 0.1z"/>
  <path d="M640.4 671.9 c-5.4 -1.5 -7.8 -5.1 -8.5 -13 -0.6 -6.7 -0.8 -7.3 -5.4 -11.9 -5.8 -5.9 -13 -8.6 -20.7 -7.7 -5.8 0.7 -6.3 0.9 -23.7 11.5 -13.3 8.1 -17.2 9.7 -22.7 9 -2.2 -0.2 -3.3 -1.2 -4.8 -4.1 -1.6 -3.3 -1.6 -4.2 -0.5 -7 1.3 -3.4 7.1 -11.1 10.4 -13.9 3.3 -2.8 13.3 -7.5 24 -11.3 5.5 -2 12.7 -4.6 16 -5.8 9.8 -3.4 17.2 -2.9 27.5 2 9.9 4.7 15.4 9.8 20 18.5 5.5 10.2 5.3 25.4 -0.3 30.6 -3.1 2.9 -7.4 4.1 -11.3 3.1z m5.2 -8 c1.4 -1.6 1.9 -3.5 1.8 -7.8 -0.1 -11.6 -2.2 -21.1 -4.6 -21.1 -0.4 0 -0.8 -0.4 -0.8 -0.9 0 -0.5 -1.5 -2.6 -3.2 -4.6 -4.4 -5.1 -16 -10.5 -22.5 -10.5 -4.9 0 -17.4 3.7 -21.5 6.4 -1.3 0.8 -4.5 2 -7.3 2.7 -7.2 1.7 -18.9 7.3 -22.4 10.6 -3.6 3.4 -7.1 9.6 -7.1 12.5 0 1.9 0.4 2 4.3 1.5 5.2 -0.7 15.9 -5.7 24.5 -11.5 3.5 -2.3 7.3 -4.7 8.4 -5.3 7.2 -3.9 20.1 -2.5 28.2 3 5.6 3.7 10.3 10.2 11.1 15.3 1.3 8.7 1.7 9.9 3.8 10.8 3.5 1.4 5.3 1.1 7.3 -1.1z"/>
 </g>
</svg>